<svg width="308" height="47" viewBox="0 0 308 47" fill="none" xmlns="http://www.w3.org/2000/svg">
<path d="M34.4184 19.9737H46.7521C46.1749 17.1166 44.1396 15.4191 41.2532 15.4191C38.0032 15.4477 35.5119 17.1166 34.4184 19.9737ZM42.3467 37.3691C33.8713 37.3691 27.7349 31.6553 27.7349 23.7633C27.7349 15.7304 33.4455 10.1015 41.5875 10.1015C49.8804 10.1015 53.5864 16.2112 53.5864 22.2639C53.5864 22.858 53.4954 23.9047 53.4652 24.0175L53.344 25.2057H34.2363C34.8744 29.2505 38.0338 31.8524 42.4382 31.8524C46.1442 31.8524 48.6958 29.6185 48.9693 29.3638L50.2152 28.1471L53.4959 32.8711L52.6452 33.6347C52.5541 33.777 48.6053 37.3691 42.3467 37.3691ZM6.34911 15.5043H13.0627C15.7969 15.5043 17.5893 13.7787 17.5893 11.1201C17.5893 8.46153 15.8879 6.87732 13.0326 6.87732H6.34911V15.5043ZM6.34911 31.1746H13.5183C16.9211 31.1746 18.9257 29.2795 18.9257 26.112C18.9257 23.0007 16.7687 20.9638 13.4574 20.9638H6.34911V31.1746ZM4.82971 36.775H0V32.7864C0 32.7298 0 32.6736 0 32.5884V1.3326H0.668195L1.06288 1.30404H13.1834C19.7457 1.30404 24.1506 5.15081 24.1506 10.8926C24.1506 13.7212 23.0565 16.1536 21.0519 17.8507C23.9077 19.5482 25.5478 22.6028 25.5478 26.2515C25.5478 32.5593 20.7477 36.7741 13.5786 36.7741H4.82971V36.775ZM244.94 36.8036H240.747C237.801 36.8036 236.252 35.3607 236.252 32.6174V12.6191L242.54 9.25364V31.3445H244.94V36.8036ZM239.533 8.15022C237.406 8.15022 235.674 6.53792 235.674 4.55766C235.674 2.5774 237.406 0.965576 239.533 0.965576C241.659 0.965576 243.391 2.5774 243.391 4.55766C243.391 6.53792 241.658 8.15022 239.533 8.15022ZM113.766 36.8036H109.574C106.628 36.8036 105.078 35.3607 105.078 32.6174V12.6477L111.397 9.2822V31.3731H113.796L113.766 36.8036ZM108.389 8.15022C106.263 8.15022 104.532 6.53792 104.532 4.55766C104.532 2.5774 106.263 0.965576 108.389 0.965576C110.516 0.965576 112.248 2.5774 112.248 4.55766C112.248 6.53792 110.516 8.15022 108.389 8.15022ZM92.5926 36.8036H86.3043V10.6389H92.5322V14.5423C94.1422 12.0536 96.5424 10.4128 99.0634 10.4128C99.8527 10.4128 100.612 10.5546 100.765 10.5827L101.858 10.8088V16.5787L100.188 16.324C100.096 16.324 99.6406 16.2393 99.185 16.2393C96.5424 16.2393 94.2638 18.191 93.2618 21.3304C92.8359 22.5752 92.6233 24.0175 92.6233 25.5166L92.5926 36.8036ZM275.865 36.8036H271.673C268.726 36.8036 267.177 35.3607 267.177 32.6174V21.3594C267.177 17.1166 266.205 15.759 263.167 15.759C259.582 15.759 256.362 18.0782 255.39 21.3875C255.147 22.1515 255.025 23.0845 255.025 24.216V36.8036H248.737V10.6955L250.165 10.6389H255.025V13.7787C256.696 11.9684 259.491 10.1019 263.592 10.1019C270.245 10.1019 273.495 13.5245 273.495 20.5392V31.3731H275.895L275.865 36.8036ZM144.935 36.8036H140.742C137.796 36.8036 136.247 35.3607 136.247 32.6174V21.3594C136.247 17.1166 135.274 15.759 132.236 15.759C128.652 15.759 125.432 18.0782 124.459 21.3875C124.216 22.1515 124.094 23.0845 124.094 24.216V36.8036H117.806V10.6955L119.234 10.6389H124.094V13.7787C125.765 11.9684 128.56 10.1019 132.661 10.1019C139.313 10.1019 142.564 13.5245 142.564 20.5392V31.3731H144.964V36.804H144.935V36.8036ZM159.242 15.6738C155.172 15.6738 152.924 18.3609 152.924 23.2545C152.924 28.0628 155.567 31.146 159.698 31.146C163.739 31.146 165.774 28.5155 165.774 23.3107C165.744 18.022 163.739 15.6738 159.242 15.6738ZM158.423 46.5901C155.446 46.5901 152.286 45.8828 149.552 44.5818L148.337 44.0163L150.858 38.8681L152.225 39.5754C152.256 39.5754 155.081 41.0468 158.332 41.0468C163.071 41.0468 165.714 38.8966 165.714 35.0218V34.8523C163.982 36.0686 161.795 36.6907 159.183 36.6907C151.74 36.6907 146.515 31.2031 146.515 23.3116C146.515 15.3068 151.376 10.1309 158.879 10.1309C162.19 10.1309 164.378 11.1773 165.927 12.5915V10.6398H172.033L172.003 34.9371C172.001 43.5355 164.984 46.5901 158.423 46.5901ZM290.325 36.973C287.256 36.973 280.118 35.9834 280.118 26.9032V15.9851H276.806V10.6674H280.148V6.31134L286.405 2.94584V10.6674H292.724V16.0137H286.405V26.6204C286.405 29.8455 287.833 31.4859 290.628 31.4859C291.053 31.4859 291.327 31.4292 291.418 31.4292L293.21 31.0617V36.6903L291.994 36.8888C291.996 36.8888 291.297 36.973 290.325 36.973ZM218.48 15.6738C213.772 15.6738 210.096 19.153 210.096 23.6224C210.096 28.2332 213.772 31.8534 218.48 31.8534C223.159 31.8534 226.804 28.2332 226.804 23.6224C226.804 19.153 223.128 15.6738 218.48 15.6738ZM218.48 37.3691C210.187 37.3691 203.717 31.3159 203.717 23.6224C203.717 16.0422 210.187 10.1019 218.45 10.1019C226.743 10.1019 233.214 16.0417 233.214 23.6224C233.184 31.3159 226.713 37.3691 218.48 37.3691ZM184.578 18.3609H190.806C194.724 18.3609 197.063 16.1831 197.063 12.5625C197.063 9.02658 194.755 6.90495 190.836 6.90495H184.578V18.3609ZM184.578 36.8036H178.168V1.33307H191.231C198.491 1.33307 203.534 5.94384 203.534 12.5625C203.534 19.2659 198.461 23.9333 191.231 23.9333H184.548L184.578 36.8036ZM73.4849 24.6121C65.6777 24.6121 62.1839 25.9416 62.1839 28.912C62.1839 30.5805 63.8546 32.2499 66.9835 32.2499C71.1761 32.2499 73.3934 29.3928 73.3934 24.5559L73.4849 24.6121ZM66.3761 37.3691C61.394 37.3691 56.3818 34.512 56.3818 29.0815C56.3818 19.6624 68.9584 19.6338 73.1807 19.6338C72.968 16.8619 71.51 15.6452 68.3807 15.6452C64.827 15.6452 62.1839 17.5688 62.1839 17.5974L60.9079 18.559L57.8097 13.8639L58.7213 13.1285C58.8731 13.0152 62.5183 10.1305 68.624 10.1305C75.5202 10.1305 79.469 13.892 79.469 20.4826V31.4007H82.4465V36.8321H77.7983C75.3376 36.8321 74.2139 35.7292 73.7278 34.2578C72.148 35.8415 69.8086 37.3691 66.3761 37.3691Z" fill="#282725"/>
<path d="M304.056 31.7118C303.843 31.599 303.479 31.5423 303.023 31.5423H302.294V33.1827H303.084C303.448 33.1827 303.722 33.1541 303.904 33.0699C304.238 32.9566 304.42 32.7019 304.42 32.3625C304.39 32.0512 304.269 31.8246 304.056 31.7118ZM303.144 31.0044C303.752 31.0044 304.207 31.0611 304.481 31.1739C304.997 31.3724 305.24 31.7684 305.24 32.334C305.24 32.73 305.088 33.0413 304.754 33.2393C304.572 33.3522 304.36 33.4088 304.055 33.4655C304.45 33.5221 304.724 33.6635 304.906 33.9182C305.088 34.1728 305.179 34.3989 305.179 34.6255V34.9649C305.179 35.0782 305.179 35.191 305.179 35.3048C305.179 35.4176 305.21 35.5028 305.21 35.5309L305.24 35.5876H304.42C304.42 35.559 304.42 35.559 304.42 35.5309C304.42 35.5028 304.42 35.5024 304.42 35.4743L304.39 35.3324V34.9649C304.39 34.428 304.237 34.0881 303.934 33.9186C303.752 33.8334 303.448 33.7772 302.962 33.7772H302.293V35.5595H301.443V31.0049L303.144 31.0044ZM300.501 30.7783C299.772 31.4857 299.378 32.3059 299.378 33.296C299.378 34.2857 299.742 35.1344 300.501 35.8418C301.23 36.5491 302.142 36.8886 303.205 36.8886C304.268 36.8886 305.18 36.5487 305.909 35.8418C306.638 35.1349 307.032 34.2861 307.032 33.296C307.032 32.3059 306.668 31.4571 305.909 30.7783C305.149 30.0709 304.268 29.732 303.205 29.732C302.172 29.732 301.261 30.0709 300.501 30.7783ZM306.365 36.2378C305.484 37.058 304.451 37.4541 303.205 37.4541C301.96 37.4541 300.927 37.058 300.046 36.2378C299.196 35.4172 298.74 34.4551 298.74 33.296C298.74 32.1645 299.165 31.1744 300.046 30.3823C300.896 29.5906 301.96 29.166 303.176 29.166C304.421 29.166 305.454 29.5621 306.334 30.3823C307.215 31.1739 307.641 32.1645 307.641 33.296C307.671 34.4275 307.246 35.4172 306.365 36.2378Z" fill="#282725"/>
</svg>
