<svg width="398" height="398" viewBox="0 0 398 398" fill="none" xmlns="http://www.w3.org/2000/svg">
<g clip-path="url(#clip0_241_380)">
<path d="M397.35 198.68C397.35 308.41 308.4 397.36 198.67 397.36C88.95 397.35 0 308.4 0 198.68C0 88.95 88.95 0 198.68 0C308.41 0 397.36 88.95 397.36 198.68H397.35Z" fill="#FAF8F5"/>
<path d="M128.31 145.56C142.443 145.56 153.9 134.103 153.9 119.97C153.9 105.837 142.443 94.3799 128.31 94.3799C114.177 94.3799 102.72 105.837 102.72 119.97C102.72 134.103 114.177 145.56 128.31 145.56Z" fill="#259C7F"/>
<path d="M147.72 162.62H108.89C107.835 162.62 106.98 163.475 106.98 164.53V288.65C106.98 289.705 107.835 290.56 108.89 290.56H147.72C148.775 290.56 149.63 289.705 149.63 288.65V164.53C149.63 163.475 148.775 162.62 147.72 162.62Z" fill="#259C7F"/>
<path d="M294.64 209.53V282.03C294.64 286.72 290.8 290.56 286.11 290.56H260.52C255.83 290.56 251.99 286.72 251.99 282.03V222.32C251.99 210.55 242.44 201 230.67 201C218.9 201 209.35 210.55 209.35 222.32V282.03C209.35 286.72 205.51 290.56 200.82 290.56H175.23C170.54 290.56 166.7 286.72 166.7 282.03V171.14C166.7 166.45 170.54 162.61 175.23 162.61H200.82C205.51 162.61 209.35 166.45 209.35 171.14V176.6C217.88 165.55 232 158.35 247.73 158.35C271.27 158.35 294.64 175.41 294.64 209.53Z" fill="#259C7F"/>
</g>
<defs>
<clipPath id="clip0_241_380">
<rect width="397.35" height="397.35" fill="white"/>
</clipPath>
</defs>
</svg>
