<svg width="1440" height="817" viewBox="0 0 1440 817" fill="none" xmlns="http://www.w3.org/2000/svg">
<g clip-path="url(#clip0_95_299)">
<path d="M162.487 306.782L-1.44714 479.63C-6.5863 485.048 -15.0697 485.228 -20.4288 480.032L-244.048 263.206C-249.407 258.01 -249.585 249.432 -244.446 244.013L-2.17835 -11.4278C2.96082 -16.8465 11.4443 -17.0261 16.8033 -11.8299L158.737 125.792C209.188 174.711 210.816 255.825 162.487 306.782Z" stroke="#EFECE6" stroke-opacity="0.48" stroke-miterlimit="10"/>
<path d="M1214.64 133.264L1378.57 -39.5839C1383.71 -45.0025 1392.2 -45.1822 1397.56 -39.9859L1725.38 277.879C1730.74 283.075 1730.92 291.652 1725.78 297.071L1483.51 552.512C1478.37 557.931 1469.89 558.111 1464.53 552.914L1218.39 314.253C1167.94 265.335 1166.31 184.221 1214.64 133.264Z" stroke="#EFECE6" stroke-opacity="0.48" stroke-miterlimit="10"/>
<path d="M594.629 211.239L1324.27 918.719C1330.77 925.017 1330.99 935.417 1324.76 941.986L660.195 1642.68C653.966 1649.25 643.68 1649.47 637.184 1643.17L-132.681 896.693C-139.177 890.395 -139.393 879.994 -133.163 873.426L492.828 213.395C520.341 184.387 565.939 183.421 594.629 211.239Z" stroke="#EFECE6" stroke-opacity="0.48" stroke-miterlimit="10"/>
<path d="M698.199 509.447L1432.17 1221.13C1437.48 1226.27 1437.66 1234.74 1432.57 1240.1L763.854 1945.18C758.766 1950.54 750.389 1950.72 745.084 1945.58L-29.1119 1194.9C-34.4168 1189.76 -34.5923 1181.29 -29.5051 1175.92L600.588 511.568C626.958 483.763 670.648 482.838 698.147 509.501L698.199 509.447Z" stroke="#EFECE6" stroke-opacity="0.48" stroke-miterlimit="10"/>
<path d="M639.445 131.823L-52.7972 -621.395C-57.8005 -626.839 -57.4934 -635.306 -52.1092 -640.365L655.692 -1305.4C661.076 -1310.46 669.45 -1310.15 674.453 -1304.71L1404.63 -510.214C1409.63 -504.77 1409.32 -496.303 1403.94 -491.244L737.015 135.387C709.105 161.611 665.435 159.992 639.5 131.772L639.445 131.823Z" stroke="#EFECE6" stroke-opacity="0.48" stroke-miterlimit="10"/>
</g>
<defs>
<clipPath id="clip0_95_299">
<rect width="1440" height="819" fill="white"/>
</clipPath>
</defs>
</svg>
