<svg width="173" height="172" viewBox="0 0 173 172" fill="none" xmlns="http://www.w3.org/2000/svg">
<g clip-path="url(#clip0_129_787)">
<rect x="41.5031" y="22.7206" width="101.485" height="104.818" rx="2.42353" fill="#F2F2F2"/>
<rect x="116.936" y="35.7471" width="21.2059" height="24.5382" rx="2.42353" fill="white"/>
<path fill-rule="evenodd" clip-rule="evenodd" d="M127.538 49.9853C130.215 49.9853 132.385 47.8152 132.385 45.1382C132.385 42.4612 130.215 40.2911 127.538 40.2911C124.861 40.2911 122.691 42.4612 122.691 45.1382C122.691 47.8152 124.861 49.9853 127.538 49.9853Z" fill="#DDE3E9"/>
<rect x="119.965" y="51.197" width="15.1471" height="1.81765" rx="0.908824" fill="#DDE3E9"/>
<rect x="122.388" y="54.2264" width="10.3" height="1.81765" rx="0.908824" fill="#DDE3E9"/>
<path d="M41.5031 25.1441C41.5031 23.8056 42.5881 22.7206 43.9266 22.7206H140.565C141.903 22.7206 142.988 23.8056 142.988 25.1441V30.9H41.5031V25.1441Z" fill="#C5CFD6"/>
<path fill-rule="evenodd" clip-rule="evenodd" d="M45.4415 28.1734C46.1107 28.1734 46.6533 27.6309 46.6533 26.9616C46.6533 26.2924 46.1107 25.7499 45.4415 25.7499C44.7723 25.7499 44.2297 26.2924 44.2297 26.9616C44.2297 27.6309 44.7723 28.1734 45.4415 28.1734Z" fill="#F2F2F2"/>
<path fill-rule="evenodd" clip-rule="evenodd" d="M49.0766 28.1734C49.7459 28.1734 50.2884 27.6309 50.2884 26.9616C50.2884 26.2924 49.7459 25.7499 49.0766 25.7499C48.4074 25.7499 47.8649 26.2924 47.8649 26.9616C47.8649 27.6309 48.4074 28.1734 49.0766 28.1734Z" fill="#F2F2F2"/>
<path fill-rule="evenodd" clip-rule="evenodd" d="M52.7119 28.1734C53.3811 28.1734 53.9237 27.6309 53.9237 26.9616C53.9237 26.2924 53.3811 25.7499 52.7119 25.7499C52.0426 25.7499 51.5001 26.2924 51.5001 26.9616C51.5001 27.6309 52.0426 28.1734 52.7119 28.1734Z" fill="#F2F2F2"/>
<g clip-path="url(#clip1_129_787)">
<rect x="116.936" y="62.7089" width="21.2059" height="58.7706" rx="2.42353" fill="white"/>
<g clip-path="url(#clip2_129_787)">
<rect x="122.388" y="68.1619" width="10.3" height="7.87647" rx="1.21176" fill="#DDE3E9"/>
<rect x="122.388" y="78.4619" width="10.3" height="7.57353" rx="1.21176" fill="#AFB9C5"/>
<rect x="122.388" y="88.4589" width="10.3" height="7.57353" rx="1.21176" fill="#DDE3E9"/>
<rect x="122.388" y="108.453" width="10.3" height="7.57353" rx="1.21176" fill="#DDE3E9"/>
<rect x="122.388" y="98.4561" width="10.3" height="7.57353" rx="1.21176" fill="#C5CFD6"/>
</g>
</g>
<g clip-path="url(#clip3_129_787)">
<g clip-path="url(#clip4_129_787)">
<rect x="46.3502" y="36.0502" width="68.1618" height="14.2382" rx="1.21176" fill="white"/>
<g clip-path="url(#clip5_129_787)">
<rect x="49.0768" y="40.3212" width="50.5912" height="2.13574" rx="0.908823" fill="#DDE3E9"/>
<rect x="49.0767" y="43.8807" width="33.9585" height="2.13574" rx="0.908823" fill="#DDE3E9"/>
</g>
<path fill-rule="evenodd" clip-rule="evenodd" d="M107.228 45.2895C108.399 45.2895 109.348 44.3401 109.348 43.1689C109.348 41.9978 108.399 41.0483 107.228 41.0483C106.057 41.0483 105.107 41.9978 105.107 43.1689C105.107 44.3401 106.057 45.2895 107.228 45.2895Z" fill="#DDE3E9"/>
<path fill-rule="evenodd" clip-rule="evenodd" d="M107.228 44.0779C107.73 44.0779 108.137 43.671 108.137 43.1691C108.137 42.6671 107.73 42.2603 107.228 42.2603C106.726 42.2603 106.319 42.6671 106.319 43.1691C106.319 43.671 106.726 44.0779 107.228 44.0779Z" fill="#F2F2F2"/>
</g>
<g clip-path="url(#clip6_129_787)">
<rect x="46.3502" y="52.7118" width="68.1618" height="11.8147" rx="1.21176" fill="white"/>
<g clip-path="url(#clip7_129_787)">
<rect x="49.0768" y="56.2561" width="50.5912" height="1.77221" rx="0.886103" fill="#DDE3E9"/>
<rect x="49.0767" y="59.2096" width="33.9585" height="1.77221" rx="0.886103" fill="#DDE3E9"/>
</g>
<path fill-rule="evenodd" clip-rule="evenodd" d="M107.228 60.7398C108.399 60.7398 109.348 59.7904 109.348 58.6192C109.348 57.4481 108.399 56.4987 107.228 56.4987C106.057 56.4987 105.107 57.4481 105.107 58.6192C105.107 59.7904 106.057 60.7398 107.228 60.7398Z" fill="#DDE3E9"/>
<path fill-rule="evenodd" clip-rule="evenodd" d="M107.228 59.528C107.73 59.528 108.137 59.1211 108.137 58.6192C108.137 58.1172 107.73 57.7103 107.228 57.7103C106.726 57.7103 106.319 58.1172 106.319 58.6192C106.319 59.1211 106.726 59.528 107.228 59.528Z" fill="#F2F2F2"/>
</g>
<g clip-path="url(#clip8_129_787)">
<rect x="46.3502" y="66.95" width="68.1618" height="11.8147" rx="1.21176" fill="white"/>
<g clip-path="url(#clip9_129_787)">
<rect x="49.0768" y="70.4944" width="50.5912" height="1.77221" rx="0.886103" fill="#DDE3E9"/>
<rect x="49.0767" y="73.4479" width="33.9585" height="1.77221" rx="0.886103" fill="#DDE3E9"/>
</g>
<path fill-rule="evenodd" clip-rule="evenodd" d="M107.228 74.9777C108.399 74.9777 109.348 74.0283 109.348 72.8572C109.348 71.686 108.399 70.7366 107.228 70.7366C106.057 70.7366 105.107 71.686 105.107 72.8572C105.107 74.0283 106.057 74.9777 107.228 74.9777Z" fill="#DDE3E9"/>
<path fill-rule="evenodd" clip-rule="evenodd" d="M107.228 73.766C107.73 73.766 108.137 73.3591 108.137 72.8572C108.137 72.3553 107.73 71.9484 107.228 71.9484C106.726 71.9484 106.319 72.3553 106.319 72.8572C106.319 73.3591 106.726 73.766 107.228 73.766Z" fill="#AFB9C5"/>
</g>
<g clip-path="url(#clip10_129_787)">
<rect x="46.3502" y="109.665" width="68.1618" height="11.8147" rx="1.21176" fill="white"/>
<g clip-path="url(#clip11_129_787)">
<rect x="49.0768" y="113.209" width="50.5912" height="1.77221" rx="0.886103" fill="#DDE3E9"/>
<rect x="49.0767" y="116.162" width="33.9585" height="1.77221" rx="0.886103" fill="#DDE3E9"/>
</g>
<path fill-rule="evenodd" clip-rule="evenodd" d="M107.228 117.692C108.399 117.692 109.348 116.743 109.348 115.572C109.348 114.401 108.399 113.451 107.228 113.451C106.057 113.451 105.107 114.401 105.107 115.572C105.107 116.743 106.057 117.692 107.228 117.692Z" fill="#DDE3E9"/>
<path fill-rule="evenodd" clip-rule="evenodd" d="M107.228 116.481C107.73 116.481 108.137 116.074 108.137 115.572C108.137 115.07 107.73 114.663 107.228 114.663C106.726 114.663 106.319 115.07 106.319 115.572C106.319 116.074 106.726 116.481 107.228 116.481Z" fill="#F2F2F2"/>
</g>
<g clip-path="url(#clip12_129_787)">
<rect x="46.3502" y="95.4265" width="68.1618" height="11.8147" rx="1.21176" fill="white"/>
<g clip-path="url(#clip13_129_787)">
<rect x="49.0768" y="98.9709" width="50.5912" height="1.77221" rx="0.886103" fill="#DDE3E9"/>
<rect x="49.0767" y="101.924" width="33.9585" height="1.77221" rx="0.886103" fill="#DDE3E9"/>
</g>
<path fill-rule="evenodd" clip-rule="evenodd" d="M107.228 103.454C108.399 103.454 109.348 102.505 109.348 101.334C109.348 100.163 108.399 99.2131 107.228 99.2131C106.057 99.2131 105.107 100.163 105.107 101.334C105.107 102.505 106.057 103.454 107.228 103.454Z" fill="#DDE3E9"/>
<path fill-rule="evenodd" clip-rule="evenodd" d="M107.228 102.242C107.73 102.242 108.137 101.836 108.137 101.334C108.137 100.832 107.73 100.425 107.228 100.425C106.726 100.425 106.319 100.832 106.319 101.334C106.319 101.836 106.726 102.242 107.228 102.242Z" fill="#F2F2F2"/>
</g>
<g clip-path="url(#clip14_129_787)">
<rect x="46.3502" y="81.1882" width="68.1618" height="11.8147" rx="1.21176" fill="white"/>
<g clip-path="url(#clip15_129_787)">
<rect x="49.0768" y="84.7325" width="50.5912" height="1.77221" rx="0.886103" fill="#DDE3E9"/>
<rect x="49.0767" y="87.6862" width="33.9585" height="1.77221" rx="0.886103" fill="#DDE3E9"/>
</g>
<path fill-rule="evenodd" clip-rule="evenodd" d="M107.228 89.216C108.399 89.216 109.348 88.2666 109.348 87.0954C109.348 85.9243 108.399 84.9749 107.228 84.9749C106.057 84.9749 105.107 85.9243 105.107 87.0954C105.107 88.2666 106.057 89.216 107.228 89.216Z" fill="#DDE3E9"/>
<path fill-rule="evenodd" clip-rule="evenodd" d="M107.228 88.0043C107.73 88.0043 108.137 87.5974 108.137 87.0955C108.137 86.5935 107.73 86.1866 107.228 86.1866C106.726 86.1866 106.319 86.5935 106.319 87.0955C106.319 87.5974 106.726 88.0043 107.228 88.0043Z" fill="#F2F2F2"/>
</g>
</g>
</g>
<path fill-rule="evenodd" clip-rule="evenodd" d="M170.927 42.2102C170.766 42.0927 170.382 42.051 170.204 42.0158C169.463 41.8697 168.699 41.806 167.943 41.806C165.612 41.8095 163.244 42.0383 160.952 42.4342C159.497 42.6856 157.738 43.5315 156.29 43.0721C153.768 42.2717 151.22 42.311 148.827 43.4537C146.64 44.4986 144.979 46.4831 144.01 48.6275C143.864 48.9512 143.271 50.1425 143.103 50.9456C143.031 51.1099 142.962 51.2752 142.9 51.443C142.723 51.9194 142.565 52.4043 142.418 52.89C142.355 53.0972 142.197 53.5548 142.385 53.6433C142.085 54.1966 141.819 54.7668 141.598 55.3555C140.954 57.0676 140.25 58.9457 140.024 60.7604C139.94 61.4323 139.937 62.1082 140.015 62.7814C140.054 63.1142 140.038 63.7833 140.263 64.0363C140.742 64.5732 140.988 63.8216 140.934 63.4636C140.522 60.7352 141.318 58.1731 142.261 55.6084C142.871 53.9499 143.873 52.4327 144.996 51.0586C145.904 49.9464 146.879 49.0705 148.124 48.3331C149.647 47.4314 151.276 46.7024 152.889 45.9711C153.95 45.49 155.012 45.0217 156.103 44.6072C156.346 44.5149 156.727 44.2785 156.996 44.2775C157.565 44.2755 158.371 44.6952 158.92 44.8513C160.727 45.3649 162.557 46.0226 164.424 46.285C165.622 46.4534 166.744 46.2638 167.864 45.8648C167.978 45.8241 168.17 45.7193 168.405 45.5697C169.237 45.2498 170.024 44.8472 170.709 44.2664C171.103 43.9317 171.461 43.4992 171.788 43.1033C171.886 42.985 171.929 42.8493 171.93 42.7204C172.004 42.6817 172.054 42.6365 172.065 42.5838C172.146 42.1942 171.403 42.187 170.927 42.2102Z" fill="#89C5CC"/>
<path fill-rule="evenodd" clip-rule="evenodd" d="M19.4712 112.555C19.0139 112.925 18.5655 113.303 18.128 113.697C17.7945 113.997 17.2045 114.356 17.0848 114.81C16.9603 115.282 17.3532 115.724 17.6635 116.01C19.3045 117.52 21.1524 118.54 23.4263 118.71C26.9277 118.971 29.9748 118.077 33.0127 116.318C35.1466 115.082 36.5601 113.254 36.8689 110.786C39.4102 111.842 41.8681 113.298 43.9568 115.084C44.9874 115.966 45.8751 116.943 46.6961 118.026C47.2219 118.719 47.7306 119.424 48.2026 120.156C48.4078 120.474 48.6164 121.038 48.9552 121.221C49.3529 121.436 49.8335 121.099 49.8138 120.657C49.7974 120.289 49.4 119.862 49.2142 119.561C48.9056 119.061 48.5924 118.565 48.2625 118.079C47.7288 117.293 47.1771 116.517 46.5754 115.781C45.2233 114.127 43.5029 112.761 41.7194 111.596C38.298 109.361 34.5431 107.953 30.38 107.833C27.8202 107.76 25.6667 108.635 23.4777 109.941C22.1148 110.754 20.7079 111.553 19.4712 112.555Z" fill="#DDE3E9"/>
<path fill-rule="evenodd" clip-rule="evenodd" d="M52.6764 101.745C50.0088 98.9974 47.3319 96.2844 44.3516 93.8654C42.5952 92.44 40.7441 91.1438 38.9311 89.7922C39.1404 89.9754 39.3455 90.1639 39.5457 90.3571C38.9799 89.9729 38.2391 89.7558 37.6391 89.4002C36.9699 89.0037 36.3303 88.55 35.7028 88.0927C34.478 87.2003 33.2717 86.2909 32.0128 85.445C30.6101 84.5026 29.1564 83.6318 27.7299 82.725C26.5192 81.9554 25.2937 81.113 23.9985 80.4839C23.2926 80.1409 22.5851 79.7344 21.8763 79.3768C21.639 79.2571 19.2319 77.7372 19.238 77.7326C19.3711 77.6323 20.5824 78.2015 20.7697 78.278C21.3169 78.5015 21.8402 78.7689 22.3663 79.0354C22.0775 78.4658 21.8489 77.8674 21.7245 77.2375C21.6861 77.0431 21.3781 75.6277 21.5357 75.5089C21.6144 75.4496 22.3823 77.982 22.4217 78.2254C22.4536 78.4232 22.4489 78.708 22.5137 78.8953C22.6182 79.1977 22.6129 79.1064 22.8432 79.2767C23.2652 79.589 23.8254 79.7842 24.2821 80.0452C24.5284 80.1827 25.2909 80.7279 25.7503 80.8834C27.14 81.5584 28.5486 82.5968 29.8691 83.459C29.5226 82.8077 29.2588 82.1266 29.0665 81.4129C29.0207 81.2435 28.5272 79.7235 28.647 79.6333C28.7817 79.5317 29.7221 81.8532 29.7778 82.073C29.8813 82.4812 29.9027 82.9356 30.0323 83.3328C30.1745 83.7687 30.6182 83.9233 31.0182 84.1774C32.4897 85.1123 33.9106 86.1057 35.3079 87.1448C36.8325 84.4333 35.0746 81.1589 33.593 78.8838C32.5251 77.2442 31.0874 75.8384 29.5694 74.6112C27.5435 72.9733 25.2256 71.6648 22.9106 70.468C20.2131 69.0734 17.2975 68.2093 14.2665 67.8101C12.6812 67.6013 11.0594 67.6071 9.45808 67.6741C8.67583 67.7067 7.925 67.8103 7.17536 68.0654C6.8375 68.1806 6.51096 68.3257 6.19275 68.4881C5.95098 68.6115 5.36611 68.7418 5.22711 68.9257C4.0828 70.4151 3.49738 71.8992 3.58678 73.7708C3.67132 75.5425 4.23085 77.315 4.9902 78.8953C5.83585 80.655 6.92349 82.2522 8.34593 83.5926C9.43118 84.6153 10.6445 85.5054 11.8498 86.3838C16.1368 89.5081 21.5719 92.2253 27.1242 91.5272C28.9215 91.3014 30.631 90.6728 32.2285 89.8187C32.6049 89.6174 32.9791 89.4139 33.3344 89.1762C33.574 89.016 34.2145 88.2941 34.4554 88.2679C34.7857 88.232 35.4973 88.9038 35.8071 89.1083C38.1621 90.6629 40.4554 92.3016 42.7006 94.0067C45.0893 95.8208 47.3609 97.7583 49.5656 99.7869C50.5034 100.65 51.4351 101.515 52.3456 102.406C52.5576 102.614 53.0759 103.378 53.4603 103.413C53.7033 103.434 53.8672 103.227 53.8325 103.002C53.7722 102.611 52.9495 102.026 52.6764 101.745Z" fill="#C1DEE2"/>
<path fill-rule="evenodd" clip-rule="evenodd" d="M171.459 56.5469C170.426 56.3212 169.285 56.3385 168.232 56.3571C162.587 56.4338 157.044 59.1064 153.437 63.3767C150.365 67.0121 149.521 71.5319 148.914 76.1009C148.854 76.5546 148.828 77.0053 148.794 77.4599C148.787 77.5574 148.776 77.6444 148.765 77.7264C148.526 77.9397 148.401 78.1884 148.542 78.4616C148.016 79.612 147.572 80.7914 147.19 82.008C146.067 85.5887 144.925 89.2376 145.629 93.0029C145.793 90.9308 146.139 88.812 146.552 86.7739C146.576 86.6569 146.602 86.5408 146.629 86.4252C146.631 86.413 146.634 86.4008 146.637 86.3887C146.783 85.7645 146.973 85.1591 147.205 84.5632C147.207 84.5567 147.209 84.5503 147.212 84.5438C147.243 84.4654 147.275 84.3874 147.307 84.3094C147.373 84.1479 147.441 83.9867 147.514 83.8264C147.538 83.7718 147.562 83.7166 147.584 83.6611C147.921 82.8353 148.063 81.9048 148.365 81.0504C148.437 80.8561 148.513 80.6625 148.592 80.47C148.597 80.4587 148.601 80.4475 148.606 80.4362C148.82 79.9181 149.056 79.4063 149.306 78.8999C149.441 78.7979 149.514 78.5448 149.631 78.3148C149.655 78.2695 149.844 77.9673 149.901 77.7932C150.048 77.5087 150.194 77.2241 150.343 76.9401C150.338 76.9418 150.334 76.9434 150.329 76.9451C150.477 76.6724 150.626 76.4008 150.774 76.1304C150.806 76.071 150.839 76.0115 150.871 75.9519C150.924 75.8571 150.977 75.7623 151.03 75.6677C151.525 74.7829 152.049 73.9157 152.593 73.0593C152.788 72.7537 153.252 72.3155 153.341 71.9723C153.344 71.9595 153.345 71.9477 153.347 71.9354C154.528 70.2761 155.889 68.7456 157.52 67.5329C157.322 67.746 156.903 68.4693 156.793 68.6124C156.454 69.0509 156.085 69.459 155.716 69.8721C155.054 70.6121 154.408 71.3756 153.834 72.183C152.784 73.6595 151.879 75.2134 151.022 76.7985C151.014 76.8078 151.005 76.8166 150.998 76.8261C150.567 77.3565 150.297 78.1582 149.987 78.765C151.213 78.1972 152.568 77.8274 153.826 77.3232C155.081 76.8206 156.301 76.261 157.479 75.6037C159.045 74.7302 160.67 73.744 162.15 72.6279C163.845 71.5761 165.27 70.1284 166.528 68.6091C168.016 66.8116 169.38 64.9983 170.223 62.8158C170.638 61.7432 170.964 60.6249 171.157 59.4935C171.165 59.4442 171.176 59.3907 171.188 59.3351C171.386 58.9444 171.562 58.5448 171.711 58.1361C171.946 57.4878 172.503 56.7747 171.459 56.5469Z" fill="#69A1AC"/>
<path fill-rule="evenodd" clip-rule="evenodd" d="M30.9027 98.6767C30.579 98.3261 30.2154 98.0099 29.7885 97.7844C29.6806 97.7274 28.8767 97.3455 28.8244 97.4293C28.7024 97.6244 30.8055 98.5648 30.9027 98.6767ZM34.7141 96.3353C34.7115 96.3501 34.9903 96.8231 35.0661 96.9685C35.2277 97.2777 35.3768 97.5929 35.5171 97.9087C35.3094 97.3509 35.096 96.8336 34.7141 96.3353ZM15.2217 100.185C14.9532 100.272 14.6304 99.9311 14.9786 99.8471C15.2604 99.7798 15.2466 99.7639 15.3731 99.5369C15.4758 99.3526 15.5391 99.1278 15.6293 98.9344C15.8205 98.5242 16.0374 98.133 16.3036 97.7665C16.8742 96.9807 17.5695 96.3035 18.3492 95.7329C19.7101 94.7372 21.2359 93.8271 22.8545 93.3699C25.428 92.6429 28.357 92.5979 30.9346 93.102C32.5309 93.4142 33.9898 93.9568 35.0498 95.2422C35.5796 95.8845 35.9955 96.637 36.1773 97.4657C36.2248 97.6823 36.2159 97.9231 36.2753 98.1352C36.3666 98.4612 36.3263 98.3744 36.7076 98.4379C37.124 98.5071 37.54 98.5778 37.956 98.6497C39.045 98.8381 40.1404 99.0381 41.2015 99.3438C41.5508 99.4443 41.8923 99.5672 42.226 99.7101C42.4783 99.818 43.4832 100.157 43.6053 100.485C43.8086 101.03 43.1276 100.783 42.9159 100.664C42.7306 100.56 42.5403 100.463 42.3472 100.374C41.861 100.149 41.3544 99.9746 40.8365 99.8361C40.2767 99.6863 39.7055 99.5746 39.1365 99.4626C38.6059 99.3584 38.0733 99.2635 37.54 99.1728C37.2437 99.1224 36.9472 99.0734 36.6507 99.0244C36.5494 99.0077 36.3707 98.92 36.3843 99.0517C35.7609 98.9315 35.0867 98.9488 34.4517 98.9157C33.674 98.8751 32.8933 98.8419 32.113 98.8662C31.5501 98.8838 30.9868 98.9207 30.4269 98.9963C30.0997 99.0405 29.7777 99.1052 29.4567 99.187C29.2803 99.232 28.585 99.3274 28.4889 99.4811C28.5302 99.4151 29.2976 99.4791 29.3953 99.4754C29.786 99.4607 30.1737 99.422 30.5629 99.3785C31.2853 99.2979 32.008 99.2557 32.7325 99.2619C32.7298 99.389 32.2348 99.6156 32.114 99.6999C31.8431 99.889 31.5836 100.095 31.3416 100.321C30.9151 100.72 30.4045 101.213 30.1095 101.685C30.1965 101.546 30.6253 101.365 30.7775 101.259C31.0213 101.089 31.2601 100.907 31.4861 100.713C31.6948 100.533 31.8894 100.34 32.0809 100.142C32.2723 99.9438 32.5321 99.5322 32.7836 99.4003C32.7988 99.3924 32.9085 99.479 32.9708 99.4495C33.0335 99.4199 33.1118 99.2715 33.1277 99.2655C33.3619 99.1751 33.8066 99.2875 34.0527 99.2989C34.6911 99.3283 35.3289 99.3668 35.9668 99.4019C36.1645 99.4127 36.3324 99.3678 36.4071 99.5136C36.4866 99.6691 36.3409 100.078 36.2994 100.247C36.1456 100.876 35.8724 101.44 35.4423 101.927C34.637 102.84 33.6439 103.448 32.522 103.855C28.225 105.414 23.6535 106.039 19.3577 104.417C17.5793 103.746 14.901 102.546 15.2217 100.185Z" fill="#89C5CC"/>
<path fill-rule="evenodd" clip-rule="evenodd" d="M148.134 96.4491C146.939 95.6388 145.35 95.4265 143.92 95.4265C138.335 95.4265 133.086 97.4986 128.551 100.586C126.066 102.278 123.843 104.432 121.88 106.675C120.747 107.97 119.737 109.371 119.022 110.929C118.54 111.98 118.208 113.076 117.984 114.206C117.71 115.583 117.493 116.988 117.394 118.389C117.356 118.94 117.035 121.865 117.952 121.915C117.947 121.987 117.946 122.056 117.951 122.118C115.961 125.23 114.731 128.877 113.591 132.335C112.598 135.345 111.714 138.379 111.14 141.493C110.385 145.591 109.888 149.752 109.652 153.909C109.602 154.803 109.567 155.697 109.537 156.591C109.511 157.354 109.486 158.118 109.461 158.881C109.433 159.736 109.282 160.721 109.418 161.571C109.537 162.311 110.177 162.199 110.206 161.462C110.24 160.573 110.234 159.681 110.273 158.79C110.325 157.609 110.378 156.427 110.436 155.245C110.839 147.038 112.349 138.952 115.136 131.199C116.264 128.062 117.557 125.092 119.218 122.19C120.679 119.638 122.436 117.168 124.232 114.867C125.977 112.631 127.792 110.447 129.93 108.553C131.666 107.016 133.575 105.677 135.537 104.431C138.03 102.848 140.517 101.304 143.217 100.089C144.621 99.4576 146.051 98.8923 147.465 98.2864C147.719 98.1774 147.992 98.0717 148.237 97.9455C149.054 97.5244 148.785 96.8902 148.134 96.4491Z" fill="#C1DEE2"/>
<path fill-rule="evenodd" clip-rule="evenodd" d="M125.666 125.115C127.931 125.115 129.946 125.409 132.034 126.309C133.835 127.086 135.477 128.115 137.071 129.234C139.313 130.809 141.079 132.642 142.316 135.071C143.054 136.522 143.596 138.575 143.1 140.157C142.516 142.021 140.911 143.576 138.799 143.247C137.492 143.044 136.294 142.179 135.301 141.365C134.113 140.392 133.162 139.221 132.377 137.92C131.096 135.799 130.344 133.4 129.256 131.184C128.739 130.132 128.24 129.072 127.622 128.072C127.316 127.577 126.99 127.087 126.525 126.719C126.277 126.522 125.229 126.181 125.63 125.739C119.756 125.816 114.552 130.328 113.424 135.912C113.319 136.432 113.237 136.957 113.15 137.481C113.096 137.811 113.118 139.031 112.822 139.242C112.17 139.708 112.444 138.292 112.472 138.089C112.545 137.562 112.622 137.035 112.703 136.51C113.143 133.652 114.415 130.995 116.537 128.957C118.964 126.626 122.237 125.115 125.666 125.115Z" fill="#89C5CC"/>
<rect x="117.239" y="9.69409" width="1.81765" height="7.57353" rx="0.908824" fill="#DDE3E9"/>
<rect x="121.48" y="4.84705" width="1.81765" height="12.4206" rx="0.908824" fill="#DDE3E9"/>
<rect x="125.721" y="2.42358" width="1.81765" height="14.8441" rx="0.908824" fill="#DDE3E9"/>
<rect x="129.962" y="4.84705" width="1.81765" height="12.4206" rx="0.908824" fill="#DDE3E9"/>
<rect x="134.203" width="1.81765" height="17.2676" rx="0.908824" fill="#C5CFD6"/>
<path fill-rule="evenodd" clip-rule="evenodd" d="M21.5089 49.4569C21.5089 46.0825 24.236 43.3204 27.5677 43.3204V49.4569L23.4271 53.9234C22.2493 52.8314 21.5089 51.2295 21.5089 49.4569Z" fill="#F2F2F2"/>
<path fill-rule="evenodd" clip-rule="evenodd" d="M27.4073 49.3793H33.5259C33.5259 50.9609 32.8807 52.4429 31.8607 53.5199C30.7389 54.6977 29.1413 55.4381 27.4073 55.4381C25.8101 55.4381 24.348 54.7992 23.2259 53.7892L27.4073 49.3793Z" fill="#AFB9C5"/>
<path fill-rule="evenodd" clip-rule="evenodd" d="M33.6268 49.3795C33.6268 46.0478 30.8998 43.3207 27.568 43.3207V49.3795H33.6268ZM24.5382 43.3204L26.9618 48.7734L21.5088 46.3498C22.0481 44.9363 23.2589 43.8597 24.5382 43.3204Z" fill="#C5CFD6"/>
<path fill-rule="evenodd" clip-rule="evenodd" d="M107.56 11.9674C107.112 12.4412 106.478 12.7387 105.772 12.7387C104.417 12.7387 103.318 11.6469 103.318 10.3C103.318 8.9532 104.417 7.86137 105.772 7.86137V3.3324C101.916 3.3324 98.7592 6.46854 98.7592 10.3C98.7592 14.1316 101.916 17.2677 105.772 17.2677C107.798 17.2677 109.629 16.4162 110.877 15.0617L107.56 11.9674Z" fill="#F2F2F2"/>
<path fill-rule="evenodd" clip-rule="evenodd" d="M105.727 3.3324V7.86137C107.074 7.86137 108.165 8.9532 108.165 10.3H112.694C112.694 6.46854 109.558 3.3324 105.727 3.3324Z" fill="#AFB9C5"/>
<path fill-rule="evenodd" clip-rule="evenodd" d="M108.172 10.3C108.172 11.0741 107.808 11.7622 107.241 12.2065L110.027 15.753C111.649 14.4833 112.694 12.5151 112.694 10.3H108.172Z" fill="#C5CFD6"/>
<path fill-rule="evenodd" clip-rule="evenodd" d="M56.7666 45.4787C53.1962 45.9171 50.6573 49.1668 51.0956 52.7371L51.9725 59.879C52.3912 63.289 55.3745 65.7582 58.7522 65.5911C58.7536 65.5992 58.7551 65.6072 58.7566 65.6153L67.8421 64.4997C69.0851 62.9446 66.6798 54.4222 65.1075 50.479C64.4301 47.1895 61.3275 44.9187 57.9355 45.3352L56.7666 45.4787Z" fill="#191847"/>
<path fill-rule="evenodd" clip-rule="evenodd" d="M59.3452 60.5202C61.5243 61.4952 63.5903 61.8418 64.4964 61.4855C66.7684 60.592 65.9291 51.9732 63.6977 48.8087C61.4663 45.6443 51.9519 45.3138 52.3056 52.083C52.4283 54.4324 53.6606 56.3912 55.3125 57.9102L54.2069 70.3052L61.726 69.382L59.3452 60.5202Z" fill="#D4A181"/>
<path fill-rule="evenodd" clip-rule="evenodd" d="M51.3155 52.2443C51.5072 52.0014 51.6928 51.7664 51.8794 51.5535L51.8393 51.311C51.8393 51.311 53.6054 46.1851 57.2334 45.7396C60.8581 45.2946 62.2116 46.8406 63.3621 48.1548L63.3652 48.1584C63.0704 49.9716 61.6213 50.8685 59.9824 51.8828C59.2769 52.3195 58.5362 52.7779 57.8373 53.3405C57.5114 53.1359 57.1158 53.0378 56.7042 53.0883C55.7526 53.2052 55.0759 54.0722 55.1929 55.0248C55.3099 55.9774 56.1762 56.6549 57.1278 56.5381C57.154 56.5349 57.1801 56.5311 57.2059 56.5267C58.0097 60.2093 58.3932 64.4803 57.4848 65.6169L48.3992 66.7324C47.5814 62.2283 48.5948 60.7904 49.6303 59.3211C50.6046 57.9385 51.5985 56.5282 51.1051 52.5096C51.1763 52.4206 51.2463 52.3319 51.3155 52.2443Z" fill="#191847"/>
<path fill-rule="evenodd" clip-rule="evenodd" d="M57.3931 96.131L80.8477 135.383L98.432 168.567H102.219L72.7568 96.131L57.3931 96.131Z" fill="#784931"/>
<path fill-rule="evenodd" clip-rule="evenodd" d="M96.9661 166.67C96.6416 166.527 96.2556 166.671 96.1343 167.005C95.9035 167.639 95.5864 168.609 95.5864 169.153C95.5864 170.007 95.8709 171.647 95.8709 171.647C96.8614 171.647 113.674 171.647 113.674 171.647C113.674 171.647 114.368 169.351 112.873 169.168C111.378 168.984 110.389 168.837 110.389 168.837L102.102 165.139C101.946 165.069 101.764 165.142 101.699 165.3L101.162 166.604C101.162 166.604 99.7777 167.25 98.9123 167.25C98.3778 167.25 97.5335 166.922 96.9661 166.67Z" fill="#E4E4E4"/>
<path fill-rule="evenodd" clip-rule="evenodd" d="M93.5483 163.253L100.852 161.041C100.852 161.041 96.0522 146.677 89.0858 129.426C82.1194 112.175 74.1224 96.131 74.1224 96.131H53.4929C53.4929 96.131 62.3838 116.426 72.344 133.012C82.3042 149.599 93.5483 163.253 93.5483 163.253Z" fill="#176669"/>
<path fill-rule="evenodd" clip-rule="evenodd" d="M55.8516 96.131C53.6379 109.924 49.3683 127.547 48.9654 128.091C48.6968 128.453 39.0263 131.697 19.954 137.822L20.7721 141.165C43.5158 137.88 55.4998 135.332 56.7241 133.52C58.5605 130.801 67.73 109.327 71.2816 96.131H55.8516Z" fill="#915B3C"/>
<path fill-rule="evenodd" clip-rule="evenodd" d="M26.6582 134.932L28.0993 140.317C45.1102 141.81 55.5332 140.731 59.3683 137.079C63.2033 133.427 67.5741 119.778 72.4806 96.131H52.8092C49.7005 115.495 47.9626 125.583 47.5953 126.396C47.2281 127.209 40.2491 130.054 26.6582 134.932Z" fill="#C5CFD6"/>
<path fill-rule="evenodd" clip-rule="evenodd" d="M21.3941 137.202C21.479 136.858 21.2702 136.504 20.9211 136.442C20.2572 136.324 19.2471 136.18 18.7121 136.275C17.8712 136.423 16.3075 136.988 16.3075 136.988C16.4795 137.965 19.399 154.539 19.399 154.539C19.399 154.539 21.7788 154.824 21.6994 153.318C21.6199 151.813 21.5933 150.812 21.5933 150.812L23.7926 142C23.8339 141.835 23.7305 141.668 23.5639 141.631L22.1879 141.328C22.1879 141.328 21.3115 140.076 21.1613 139.223C21.0684 138.696 21.2454 137.805 21.3941 137.202Z" fill="#E4E4E4"/>
<path fill-rule="evenodd" clip-rule="evenodd" d="M94.669 77.0966L84.2785 84.0343L88.6883 88.0123L95.9825 80.0506C100.059 78.5329 101.896 77.5228 101.493 77.0203C101.153 76.5965 100.669 76.6546 100.223 76.708C99.8763 76.7496 99.5524 76.7885 99.3375 76.5947C98.8469 76.152 99.555 74.3925 100.298 72.7516C101.042 71.1106 100.112 71.329 99.5937 71.601C97.9367 72.9487 96.2951 74.7806 94.669 77.0966ZM45.5746 93.5696L38.9816 93.4276C36.6714 105.587 35.1972 112.287 34.5591 113.528C34.0912 114.438 30.6975 117.167 28.3485 118.719C27.4056 119.342 27.7771 120.167 28.1253 120.39C30.3214 121.8 31.9697 120.88 33.7639 119.878C34.2834 119.587 34.815 119.291 35.3758 119.041C36.8271 118.396 37.4268 119.096 37.9935 119.758C38.4953 120.343 38.9712 120.899 39.9896 120.464C39.9045 120.264 39.8039 120.041 39.6954 119.8C38.9939 118.242 37.9593 115.945 38.6188 114.388C38.9572 113.589 41.2758 106.65 45.5746 93.5696Z" fill="#D4A181"/>
<path fill-rule="evenodd" clip-rule="evenodd" d="M58.458 65.3952L61.0646 64.4597C67.9217 69.1124 72.7192 82.3493 76.9397 83.4693C80.93 84.5281 85.8677 81.952 91.6898 78.6225L94.344 82.5443C89.7748 89.6565 78.6541 96.9453 73.257 94.8553C64.628 91.5139 59.8577 74.9859 58.458 65.3952Z" fill="#FABB3E"/>
<path fill-rule="evenodd" clip-rule="evenodd" d="M52.7027 101.275C52.7027 101.275 68.8694 98.4246 76.4865 97.0815C77.5733 96.8899 77.0915 95.3551 76.7947 94.5901C73.3684 85.7613 64.5516 77.1478 62.2554 64.1252L55.2052 64.258C51.1416 74.3939 51.1625 85.9874 52.7027 101.275Z" fill="#DDE3E9"/>
<path fill-rule="evenodd" clip-rule="evenodd" d="M69.9795 104.967L48.5704 108.742C48.0073 103.567 48.1396 97.9672 48.6972 92.4314C45.3924 102.041 42.4284 109.062 39.8052 113.496L34.6475 113.397C34.3436 92.895 41.0486 76.5413 54.7626 64.3361L54.8408 64.3223C54.8408 64.3222 54.8408 64.3222 54.8408 64.3222L57.4788 63.8571C57.4788 63.8571 72.2753 93.7511 69.9795 104.967Z" fill="#FCDA97"/>
<defs>
<clipPath id="clip0_129_787">
<rect width="101.485" height="104.818" fill="white" transform="translate(41.5031 22.7206)"/>
</clipPath>
<clipPath id="clip1_129_787">
<rect width="21.2059" height="58.7706" fill="white" transform="translate(116.936 62.7089)"/>
</clipPath>
<clipPath id="clip2_129_787">
<rect width="10.3" height="47.8647" fill="white" transform="translate(122.388 68.1619)"/>
</clipPath>
<clipPath id="clip3_129_787">
<rect width="68.1618" height="85.4294" fill="white" transform="translate(46.3502 36.0502)"/>
</clipPath>
<clipPath id="clip4_129_787">
<rect width="68.1618" height="14.2382" fill="white" transform="translate(46.3502 36.0502)"/>
</clipPath>
<clipPath id="clip5_129_787">
<rect width="50.5912" height="5.69529" fill="white" transform="translate(49.0768 40.3212)"/>
</clipPath>
<clipPath id="clip6_129_787">
<rect width="68.1618" height="11.8147" fill="white" transform="translate(46.3502 52.7118)"/>
</clipPath>
<clipPath id="clip7_129_787">
<rect width="50.5912" height="4.72588" fill="white" transform="translate(49.0768 56.2561)"/>
</clipPath>
<clipPath id="clip8_129_787">
<rect width="68.1618" height="11.8147" fill="white" transform="translate(46.3502 66.95)"/>
</clipPath>
<clipPath id="clip9_129_787">
<rect width="50.5912" height="4.72588" fill="white" transform="translate(49.0768 70.4944)"/>
</clipPath>
<clipPath id="clip10_129_787">
<rect width="68.1618" height="11.8147" fill="white" transform="translate(46.3502 109.665)"/>
</clipPath>
<clipPath id="clip11_129_787">
<rect width="50.5912" height="4.72588" fill="white" transform="translate(49.0768 113.209)"/>
</clipPath>
<clipPath id="clip12_129_787">
<rect width="68.1618" height="11.8147" fill="white" transform="translate(46.3502 95.4265)"/>
</clipPath>
<clipPath id="clip13_129_787">
<rect width="50.5912" height="4.72588" fill="white" transform="translate(49.0768 98.9709)"/>
</clipPath>
<clipPath id="clip14_129_787">
<rect width="68.1618" height="11.8147" fill="white" transform="translate(46.3502 81.1882)"/>
</clipPath>
<clipPath id="clip15_129_787">
<rect width="50.5912" height="4.72588" fill="white" transform="translate(49.0768 84.7325)"/>
</clipPath>
</defs>
</svg>
