<svg width="204" height="191" viewBox="0 0 204 191" fill="none" xmlns="http://www.w3.org/2000/svg">
<g clip-path="url(#clip0_129_631)">
<rect x="36.7117" y="27.785" width="106.152" height="109.637" rx="2.53497" fill="#F2F2F2"/>
<rect x="115.613" y="41.4105" width="22.181" height="25.6666" rx="2.53497" fill="white"/>
<path fill-rule="evenodd" clip-rule="evenodd" d="M126.703 56.3033C129.503 56.3033 131.773 54.0334 131.773 51.2334C131.773 48.4333 129.503 46.1635 126.703 46.1635C123.903 46.1635 121.633 48.4333 121.633 51.2334C121.633 54.0334 123.903 56.3033 126.703 56.3033Z" fill="#DDE3E9"/>
<rect x="118.781" y="57.5708" width="15.8436" height="1.90123" rx="0.950614" fill="#DDE3E9"/>
<rect x="121.316" y="60.7395" width="10.7736" height="1.90123" rx="0.950614" fill="#DDE3E9"/>
<path d="M36.7117 30.32C36.7117 28.92 37.8466 27.785 39.2466 27.785H140.329C141.729 27.785 142.864 28.92 142.864 30.32V36.3406H36.7117V30.32Z" fill="#C5CFD6"/>
<path fill-rule="evenodd" clip-rule="evenodd" d="M40.8312 33.4889C41.5312 33.4889 42.0987 32.9215 42.0987 32.2215C42.0987 31.5215 41.5312 30.954 40.8312 30.954C40.1312 30.954 39.5637 31.5215 39.5637 32.2215C39.5637 32.9215 40.1312 33.4889 40.8312 33.4889Z" fill="#F2F2F2"/>
<path fill-rule="evenodd" clip-rule="evenodd" d="M44.6337 33.4887C45.3337 33.4887 45.9012 32.9212 45.9012 32.2212C45.9012 31.5212 45.3337 30.9537 44.6337 30.9537C43.9337 30.9537 43.3662 31.5212 43.3662 32.2212C43.3662 32.9212 43.9337 33.4887 44.6337 33.4887Z" fill="#F2F2F2"/>
<path fill-rule="evenodd" clip-rule="evenodd" d="M48.4362 33.4887C49.1362 33.4887 49.7037 32.9212 49.7037 32.2212C49.7037 31.5212 49.1362 30.9537 48.4362 30.9537C47.7362 30.9537 47.1687 31.5212 47.1687 32.2212C47.1687 32.9212 47.7362 33.4887 48.4362 33.4887Z" fill="#F2F2F2"/>
<g clip-path="url(#clip1_129_631)">
<rect x="115.613" y="69.6119" width="22.181" height="61.473" rx="2.53497" fill="white"/>
<g clip-path="url(#clip2_129_631)">
<rect x="121.316" y="75.3157" width="10.7736" height="8.23865" rx="1.26748" fill="#DDE3E9"/>
<rect x="121.316" y="86.0895" width="10.7736" height="7.92178" rx="1.26748" fill="#AFB9C5"/>
<rect x="121.316" y="96.5461" width="10.7736" height="7.92178" rx="1.26748" fill="#DDE3E9"/>
<rect x="121.316" y="117.46" width="10.7736" height="7.92178" rx="1.26748" fill="#DDE3E9"/>
<rect x="121.316" y="107.003" width="10.7736" height="7.92178" rx="1.26748" fill="#C5CFD6"/>
</g>
</g>
<g clip-path="url(#clip3_129_631)">
<g clip-path="url(#clip4_129_631)">
<rect x="41.7817" y="41.7274" width="71.296" height="14.8929" rx="1.26748" fill="white"/>
<g clip-path="url(#clip5_129_631)">
<rect x="44.6335" y="46.1952" width="52.9175" height="2.23394" rx="0.950613" fill="#DDE3E9"/>
<rect x="44.6335" y="49.9185" width="35.52" height="2.23394" rx="0.950613" fill="#DDE3E9"/>
</g>
<path fill-rule="evenodd" clip-rule="evenodd" d="M105.459 51.3919C106.684 51.3919 107.677 50.3988 107.677 49.1738C107.677 47.9488 106.684 46.9557 105.459 46.9557C104.234 46.9557 103.24 47.9488 103.24 49.1738C103.24 50.3988 104.234 51.3919 105.459 51.3919Z" fill="#DDE3E9"/>
<path fill-rule="evenodd" clip-rule="evenodd" d="M105.458 50.1244C105.983 50.1244 106.409 49.6988 106.409 49.1738C106.409 48.6487 105.983 48.2231 105.458 48.2231C104.933 48.2231 104.508 48.6487 104.508 49.1738C104.508 49.6988 104.933 50.1244 105.458 50.1244Z" fill="#F2F2F2"/>
</g>
<g clip-path="url(#clip6_129_631)">
<rect x="41.7817" y="59.1552" width="71.296" height="12.358" rx="1.26748" fill="white"/>
<g clip-path="url(#clip7_129_631)">
<rect x="44.6335" y="62.8624" width="52.9175" height="1.8537" rx="0.926848" fill="#DDE3E9"/>
<rect x="44.6335" y="65.952" width="35.52" height="1.8537" rx="0.926848" fill="#DDE3E9"/>
</g>
<path fill-rule="evenodd" clip-rule="evenodd" d="M105.459 67.5523C106.684 67.5523 107.677 66.5592 107.677 65.3342C107.677 64.1092 106.684 63.1161 105.459 63.1161C104.234 63.1161 103.24 64.1092 103.24 65.3342C103.24 66.5592 104.234 67.5523 105.459 67.5523Z" fill="#DDE3E9"/>
<path fill-rule="evenodd" clip-rule="evenodd" d="M105.458 66.2849C105.983 66.2849 106.409 65.8593 106.409 65.3343C106.409 64.8093 105.983 64.3837 105.458 64.3837C104.933 64.3837 104.508 64.8093 104.508 65.3343C104.508 65.8593 104.933 66.2849 105.458 66.2849Z" fill="#F2F2F2"/>
</g>
<g clip-path="url(#clip8_129_631)">
<rect x="41.7817" y="74.0481" width="71.296" height="12.358" rx="1.26748" fill="white"/>
<g clip-path="url(#clip9_129_631)">
<rect x="44.6335" y="77.7552" width="52.9175" height="1.8537" rx="0.926848" fill="#DDE3E9"/>
<rect x="44.6335" y="80.8447" width="35.52" height="1.8537" rx="0.926848" fill="#DDE3E9"/>
</g>
<path fill-rule="evenodd" clip-rule="evenodd" d="M105.459 82.4451C106.684 82.4451 107.677 81.452 107.677 80.227C107.677 79.002 106.684 78.0089 105.459 78.0089C104.234 78.0089 103.24 79.002 103.24 80.227C103.24 81.452 104.234 82.4451 105.459 82.4451Z" fill="#DDE3E9"/>
<path fill-rule="evenodd" clip-rule="evenodd" d="M105.458 81.1776C105.983 81.1776 106.409 80.752 106.409 80.227C106.409 79.702 105.983 79.2764 105.458 79.2764C104.933 79.2764 104.508 79.702 104.508 80.227C104.508 80.752 104.933 81.1776 105.458 81.1776Z" fill="#AFB9C5"/>
</g>
<g clip-path="url(#clip10_129_631)">
<rect x="41.7817" y="118.727" width="71.296" height="12.358" rx="1.26748" fill="white"/>
<g clip-path="url(#clip11_129_631)">
<rect x="44.6335" y="122.434" width="52.9175" height="1.8537" rx="0.926848" fill="#DDE3E9"/>
<rect x="44.6335" y="125.524" width="35.52" height="1.8537" rx="0.926848" fill="#DDE3E9"/>
</g>
<path fill-rule="evenodd" clip-rule="evenodd" d="M105.459 127.124C106.684 127.124 107.677 126.131 107.677 124.906C107.677 123.681 106.684 122.688 105.459 122.688C104.234 122.688 103.24 123.681 103.24 124.906C103.24 126.131 104.234 127.124 105.459 127.124Z" fill="#DDE3E9"/>
<path fill-rule="evenodd" clip-rule="evenodd" d="M105.458 125.857C105.983 125.857 106.409 125.431 106.409 124.906C106.409 124.381 105.983 123.955 105.458 123.955C104.933 123.955 104.508 124.381 104.508 124.906C104.508 125.431 104.933 125.857 105.458 125.857Z" fill="#F2F2F2"/>
</g>
<g clip-path="url(#clip12_129_631)">
<rect x="41.7817" y="103.834" width="71.296" height="12.358" rx="1.26748" fill="white"/>
<g clip-path="url(#clip13_129_631)">
<rect x="44.6335" y="107.542" width="52.9175" height="1.8537" rx="0.926848" fill="#DDE3E9"/>
<rect x="44.6335" y="110.631" width="35.52" height="1.8537" rx="0.926848" fill="#DDE3E9"/>
</g>
<path fill-rule="evenodd" clip-rule="evenodd" d="M105.459 112.231C106.684 112.231 107.677 111.238 107.677 110.013C107.677 108.788 106.684 107.795 105.459 107.795C104.234 107.795 103.24 108.788 103.24 110.013C103.24 111.238 104.234 112.231 105.459 112.231Z" fill="#DDE3E9"/>
<path fill-rule="evenodd" clip-rule="evenodd" d="M105.458 110.964C105.983 110.964 106.409 110.538 106.409 110.013C106.409 109.488 105.983 109.062 105.458 109.062C104.933 109.062 104.508 109.488 104.508 110.013C104.508 110.538 104.933 110.964 105.458 110.964Z" fill="#F2F2F2"/>
</g>
<g clip-path="url(#clip14_129_631)">
<rect x="41.7817" y="88.9412" width="71.296" height="12.358" rx="1.26748" fill="white"/>
<g clip-path="url(#clip15_129_631)">
<rect x="44.6335" y="92.6483" width="52.9175" height="1.8537" rx="0.926848" fill="#DDE3E9"/>
<rect x="44.6335" y="95.7382" width="35.52" height="1.8537" rx="0.926848" fill="#DDE3E9"/>
</g>
<path fill-rule="evenodd" clip-rule="evenodd" d="M105.459 97.3382C106.684 97.3382 107.677 96.3451 107.677 95.1201C107.677 93.8951 106.684 92.902 105.459 92.902C104.234 92.902 103.24 93.8951 103.24 95.1201C103.24 96.3451 104.234 97.3382 105.459 97.3382Z" fill="#DDE3E9"/>
<path fill-rule="evenodd" clip-rule="evenodd" d="M105.458 96.0707C105.983 96.0707 106.409 95.6451 106.409 95.12C106.409 94.595 105.983 94.1694 105.458 94.1694C104.933 94.1694 104.508 94.595 104.508 95.12C104.508 95.6451 104.933 96.0707 105.458 96.0707Z" fill="#F2F2F2"/>
</g>
</g>
</g>
<rect x="115.929" y="14.1595" width="1.90123" height="7.92178" rx="0.950614" fill="#DDE3E9"/>
<rect x="120.366" y="9.08984" width="1.90123" height="12.9917" rx="0.950614" fill="#DDE3E9"/>
<rect x="124.802" y="6.55457" width="1.90123" height="15.5267" rx="0.950614" fill="#DDE3E9"/>
<rect x="129.239" y="9.08984" width="1.90123" height="12.9917" rx="0.950614" fill="#DDE3E9"/>
<rect x="133.675" y="4.01965" width="1.90123" height="18.0617" rx="0.950614" fill="#C5CFD6"/>
<path fill-rule="evenodd" clip-rule="evenodd" d="M105.806 16.5373C105.337 17.0329 104.674 17.3441 103.936 17.3441C102.518 17.3441 101.368 16.2021 101.368 14.7933C101.368 13.3845 102.518 12.2425 103.936 12.2425V7.50525C99.9021 7.50525 96.6003 10.7856 96.6003 14.7933C96.6003 18.801 99.9021 22.0813 103.936 22.0813C106.055 22.0813 107.97 21.1907 109.275 19.7739L105.806 16.5373Z" fill="#F2F2F2"/>
<path fill-rule="evenodd" clip-rule="evenodd" d="M103.889 7.50525V12.2425C105.297 12.2425 106.439 13.3845 106.439 14.7933H111.177C111.177 10.7856 107.896 7.50525 103.889 7.50525Z" fill="#AFB9C5"/>
<path fill-rule="evenodd" clip-rule="evenodd" d="M106.447 14.7932C106.447 15.6029 106.065 16.3226 105.473 16.7873L108.387 20.4969C110.083 19.1688 111.177 17.1102 111.177 14.7932H106.447Z" fill="#C5CFD6"/>
<path fill-rule="evenodd" clip-rule="evenodd" d="M137.111 62.5092C134.751 63.932 132.432 64.6194 131.343 64.3388C128.613 63.6351 128.362 53.6484 130.474 49.7113C132.587 45.7743 143.445 44.0582 143.993 51.8588C144.183 54.5661 143.046 56.9823 141.366 58.9538L144.378 72.9909H135.63L137.111 62.5092Z" fill="#D4A181"/>
<path fill-rule="evenodd" clip-rule="evenodd" d="M147.807 49.2622C148.089 48.9822 148.243 48.5826 148.377 48.2031C148.515 47.8088 148.65 47.4106 148.742 47.0002C148.925 46.1804 148.927 45.2375 148.342 44.6009C147.873 44.0904 147.169 43.8614 146.52 43.8117C146.087 43.7785 145.642 43.8391 145.228 43.9755C144.816 44.1108 144.461 44.3804 144.062 44.5477C144.047 43.6642 143.896 42.7398 143.447 41.9854C143.016 41.2595 142.328 40.8522 141.545 40.7445C140.741 40.6339 139.948 40.822 139.228 41.2111C139.048 41.3086 138.869 41.4107 138.699 41.5262C138.556 41.623 138.407 41.7395 138.239 41.7789C138.052 41.8228 137.959 41.7148 137.838 41.5783C137.695 41.4183 137.535 41.2773 137.365 41.1524C136.613 40.6 135.627 40.3728 134.756 40.7039C134.355 40.8565 133.965 41.1156 133.693 41.4726C133.45 41.7908 133.277 42.2956 132.943 42.5174C132.8 42.6115 132.7 42.4868 132.571 42.3946C132.376 42.2561 132.191 42.1033 131.994 41.9686C131.718 41.7794 131.419 41.6378 131.099 41.5637C130.63 41.4552 129.982 41.4806 129.848 42.0948C129.798 42.3255 129.836 42.5722 129.852 42.8046C129.875 43.1237 129.898 43.4428 129.926 43.7614C129.947 44.0034 129.973 44.2371 130.019 44.4747C130.043 44.6013 130.12 44.8375 130.065 44.9643C129.997 45.1228 129.684 45.0327 129.55 45.0382C129.286 45.0491 129.021 45.0955 128.776 45.2084C128.587 45.296 128.388 45.4248 128.308 45.6419C128.258 45.7752 128.271 45.9122 128.295 46.0494C128.322 46.2141 128.291 46.3014 128.27 46.4676C127.915 46.2928 126.684 45.9044 126.53 46.5406C126.478 46.7525 126.596 46.9919 126.685 47.1705C126.842 47.4839 127.048 47.7703 127.258 48.0435C127.698 48.6133 128.222 49.1048 128.786 49.5252C128.125 49.8189 127.952 50.6854 128.525 51.2016C128.777 51.4295 129.117 51.4803 129.435 51.4657C129.552 51.4604 129.72 51.4155 129.812 51.4358C129.861 51.4468 129.914 51.4886 129.983 51.4933C130.432 51.5241 130.94 51.4158 131.379 51.316C132.163 51.1382 132.904 50.7671 133.51 50.2019C133.665 50.057 133.793 49.9735 134.002 49.9756C134.186 49.9775 134.365 50.0277 134.549 50.0324C135.033 50.0447 135.47 49.808 135.919 49.6504C135.947 50.2579 136.12 50.9271 136.368 51.4737C136.571 51.9194 136.994 51.9842 137.41 52.0233C138.74 52.1484 140.075 52.0088 141.406 52.0106C140.117 52.302 138.785 52.4221 137.508 52.7649C136.93 52.9199 137.371 53.3091 137.618 53.5789C138.025 54.0232 138.327 54.5737 138.537 55.1537C139.167 54.3317 140.282 53.7902 141.269 54.0427C142.36 54.3216 143.129 55.7971 142.431 56.8578C142.026 57.4736 141.294 57.7113 140.686 57.9758C141.161 58.4695 141.275 59.1985 141.561 59.8127C141.702 60.1155 141.9 60.458 142.215 60.5635C142.332 60.6026 142.469 60.6059 142.561 60.701C142.674 60.8187 142.702 60.9503 142.847 61.0514C143.428 61.4552 144.335 61.4241 144.85 60.8972C145.315 60.4206 145.194 59.6666 144.805 59.1835C145.424 58.9255 146.552 58.5937 146.306 57.6296C147.647 57.5406 150.903 55.3657 149.103 53.7765C150.091 53.2182 150.998 51.854 150.364 50.6514C149.875 49.7253 148.739 49.3113 147.807 49.2622" fill="#191847"/>
<path fill-rule="evenodd" clip-rule="evenodd" d="M160.189 118.554H132.029L128.34 163.753H170.258L160.189 118.554Z" fill="#C5CFD6"/>
<path fill-rule="evenodd" clip-rule="evenodd" d="M160.189 118.554H151.528L146.345 163.753H170.258L160.189 118.554Z" fill="black" fill-opacity="0.1"/>
<path fill-rule="evenodd" clip-rule="evenodd" d="M116.558 127.509C119.722 134.22 124.667 150.511 124.667 150.511L120.469 152.429C120.469 152.429 109.818 135.304 103.308 123.598C103.612 126.233 103.92 129.2 104.207 132.319C104.885 139.708 104.207 155.671 103.842 160.282C103.613 163.18 99.6751 162.573 99.3075 160.274C99.2452 159.885 98.9915 158.518 98.6129 156.479C96.7564 146.48 91.8977 120.31 91.8891 113.902C91.8857 111.324 96.9229 109.008 99.9253 110.811C101.988 108.61 105.891 107.342 108.133 110.977C109.558 113.288 112.945 119.848 116.558 127.509Z" fill="#D4A181"/>
<path fill-rule="evenodd" clip-rule="evenodd" d="M124.367 144.48L109.959 110.348C106.507 104.796 96.8295 111.478 98.0066 114.698C100.679 122.009 114.27 145.678 115.066 147.857L124.367 144.48Z" fill="#FABB3E"/>
<path fill-rule="evenodd" clip-rule="evenodd" d="M124.161 148.411C124.372 148.119 124.784 148.05 125.061 148.281C125.657 148.776 126.592 149.604 126.918 150.169C127.411 151.023 128.073 152.825 128.073 152.825C127.082 153.397 110.268 163.105 110.268 163.105C110.268 163.105 108.249 161.211 109.639 160.165C111.029 159.119 111.933 158.4 111.933 158.4L118.112 149.886C118.214 149.746 118.412 149.717 118.549 149.823L119.872 150.842C119.872 150.842 121.629 150.688 122.495 150.189C123.053 149.867 123.742 148.992 124.161 148.411Z" fill="#E4E4E4"/>
<path fill-rule="evenodd" clip-rule="evenodd" d="M103.867 157.974C104.195 157.826 104.587 157.973 104.712 158.311C104.98 159.038 105.376 160.223 105.376 160.875C105.376 161.861 105.047 163.753 105.047 163.753C103.903 163.753 84.4884 163.753 84.4884 163.753C84.4884 163.753 83.6871 161.103 85.4136 160.892C87.1402 160.681 88.2822 160.511 88.2822 160.511L97.8912 156.227C98.0495 156.156 98.2348 156.231 98.3009 156.391L98.9374 157.935C98.9374 157.935 100.536 158.681 101.535 158.681C102.179 158.681 103.214 158.267 103.867 157.974Z" fill="#E4E4E4"/>
<path fill-rule="evenodd" clip-rule="evenodd" d="M90.8792 116.525C90.8792 126.209 95.4781 148.797 95.481 150.93L105.376 150.937C105.376 150.937 103.203 120.704 103.835 120.378C104.467 120.052 129.734 122.901 137.311 122.901C148.239 122.901 152.759 116.01 153.126 103.245H131.479C127.072 103.716 104.082 108.354 95.5442 109.948C91.889 110.63 90.8792 113.857 90.8792 116.525Z" fill="#FCDA97"/>
<path fill-rule="evenodd" clip-rule="evenodd" d="M115.455 73.6068L128.107 80.5362L123.435 85.5509L114.242 77.1335C109.399 75.7989 107.184 74.8225 107.597 74.2044C107.946 73.6833 108.508 73.7014 109.026 73.7181C109.43 73.731 109.806 73.7432 110.034 73.4988C110.554 72.9408 109.562 70.9899 108.541 69.1787C107.521 67.3675 108.612 67.5252 109.236 67.7857C111.278 69.168 113.351 71.1084 115.455 73.6068ZM102.734 83.3298L108.292 86.3827L107.975 91.9598C107.975 91.9598 104.376 89.3619 101.279 88.4985C97.3308 87.3976 95.7333 86.5569 93.8039 84.0985C92.7716 82.7831 91.8954 80.1389 92.878 79.2777C93.255 78.9474 94.6594 79.7278 96.0924 80.5241C97.1845 81.1309 98.2932 81.747 98.9762 81.8876C99.8958 82.0769 99.7881 80.8851 99.7021 79.9327C99.6404 79.2493 99.5898 78.6891 99.9378 78.8511C101.565 78.879 102.734 83.3298 102.734 83.3298Z" fill="#997659"/>
<path fill-rule="evenodd" clip-rule="evenodd" d="M134.269 78.9926C129.837 78.9458 123.928 78.0098 117.622 74.0074L115.146 79.5296C119.495 83.8459 125.611 87.3923 130.958 87.2422C135.172 87.1238 137.326 82.0266 134.269 78.9926Z" fill="#BADECD"/>
<path fill-rule="evenodd" clip-rule="evenodd" d="M134.98 64.9719C134.98 64.9718 134.98 64.9718 134.98 64.9718H143.769C143.769 64.9718 143.769 64.9718 143.769 64.9719H144.087C145.196 64.9719 152.734 79.4216 152.741 88.8093C152.744 92.033 153.873 94.8143 155.062 97.7426C157.035 102.601 159.173 107.864 156.599 116.224C154.305 115.772 150.434 116.277 146.221 116.826C138.336 117.854 129.254 119.038 127.073 114.401C125.446 110.94 124.961 107.153 125.174 103.173C118.466 103.027 110.324 100.814 100.824 95.8517C100.513 92.2217 104.634 83.6977 104.634 83.6977C104.634 83.6977 120.955 89.5054 128.305 87.837C128.741 86.3599 129.196 84.8794 129.649 83.4011C131.591 77.0709 133.521 70.7811 133.973 64.9719H134.98Z" fill="#259C7F"/>
<path fill-rule="evenodd" clip-rule="evenodd" d="M11.5962 59.3656C15.1395 67.7853 21.1628 73.6353 24.353 82.39C26.2447 87.5819 27.0333 93.2268 27.0811 99.0083C27.1071 102.149 27.0524 105.291 27.0377 108.431C27.0235 111.494 26.9402 114.536 26.6803 117.579C26.4191 120.638 26.1266 123.661 25.9976 126.738C25.8972 129.137 25.8513 131.926 25.0384 134.113C24.392 135.853 22.749 136.108 22.3131 133.998C22.0708 132.825 22.1014 131.516 22.1281 130.31C22.1623 128.764 22.2523 127.22 22.2982 125.673C22.4826 119.468 22.2435 113.262 22.3685 107.055C22.4905 100.99 23.2701 94.9323 22.4075 88.9081C21.6952 83.9333 19.8857 79.6613 17.8061 75.5659C15.8054 71.6257 13.6278 67.7812 12.2757 63.2993C11.8875 62.0121 11.5874 60.6783 11.4434 59.2942C11.5063 59.265 11.5572 59.2887 11.5962 59.3656Z" fill="#C1DEE2"/>
<path fill-rule="evenodd" clip-rule="evenodd" d="M10.6308 75.9765C11.3324 76.4832 11.7245 77.2243 12.1987 77.9556C12.7885 78.8647 13.4818 79.6855 14.0714 80.5954C15.3008 82.4922 16.3809 84.5055 17.5016 86.4791C19.6293 90.2254 21.2447 94.2181 22.0448 98.5521C22.8742 103.044 23.0978 107.68 23.4457 112.238C23.8147 117.07 24.1862 121.936 24.2351 126.786C24.2569 128.959 24.3744 131.266 24.1135 133.424C23.9511 134.767 23.3449 135.912 21.9783 135.901C19.0754 135.878 17.7126 132.662 17.1432 130.026C16.3051 126.143 16.1378 122.018 16.2705 118.047C16.4308 113.259 17.2619 108.543 17.6215 103.774C18.0024 98.7246 17.7872 93.7646 16.0513 89.0105C15.1743 86.608 14.1564 84.2631 13.2425 81.8766C12.8533 80.8605 12.5345 79.8167 12.0089 78.8705C11.4241 77.818 10.6982 76.8626 10.2402 75.729C10.3704 75.8116 10.5007 75.8941 10.6308 75.9765Z" fill="#89C5CC"/>
<path fill-rule="evenodd" clip-rule="evenodd" d="M44.0702 65.908C44.1592 65.8388 44.2483 65.7697 44.3373 65.7003C44.081 66.7805 43.6179 67.6579 43.2639 68.6452C42.9457 69.5329 42.7844 70.5374 42.5701 71.5077C42.0669 73.7865 41.4853 76.014 41.01 78.3122C40.0691 82.86 40.247 87.7594 40.8642 92.805C41.447 97.5712 42.3687 102.33 42.8079 107.095C43.172 111.047 43.3284 115.122 42.9812 118.893C42.7452 121.453 41.9716 124.511 39.8638 124.252C38.8715 124.131 38.3539 122.936 38.1453 121.588C37.8103 119.422 37.7402 117.146 37.6096 114.992C37.3182 110.186 37.2602 105.394 37.2026 100.637C37.1482 96.1489 36.9982 91.5717 37.2981 87.1966C37.5873 82.9749 38.492 79.1707 39.7856 75.6606C40.4668 73.8114 41.116 71.9189 41.8815 70.1564C42.2486 69.311 42.697 68.564 43.0643 67.7193C43.3596 67.0398 43.5945 66.3426 44.0702 65.908Z" fill="#C1DEE2"/>
<path fill-rule="evenodd" clip-rule="evenodd" d="M11.5271 89.89C11.911 89.2456 12.7559 91.3709 12.8845 91.6382C12.8301 91.5052 12.7755 91.3724 12.7204 91.2398C13.4824 92.5067 14.1794 93.8256 14.6128 95.2783C15.0417 96.7164 15.41 98.1836 15.8124 99.6319C16.5674 102.349 17.5414 104.989 18.2255 107.731C18.8921 110.403 19.0601 113.03 18.8988 115.793C18.7311 118.666 18.6285 121.582 18.8241 124.453C18.9175 125.824 19.3631 127.101 19.6684 128.421C19.9741 129.742 20.2149 131.081 20.5763 132.386C20.6593 132.216 20.6699 132.784 20.6697 132.828C20.6674 133.154 20.6219 133.427 20.517 133.736C20.2475 134.531 19.7433 135.206 18.9761 135.426C17.5895 135.822 16.3021 134.56 15.855 133.229C15.2136 131.318 14.8601 129.206 14.5544 127.197C14.2741 125.356 14.2078 123.503 14.2911 121.636C14.4551 117.954 15.1214 114.32 15.3017 110.639C15.4979 106.631 14.7039 102.866 14.0391 98.9651C13.7189 97.0855 13.4129 95.2236 12.7897 93.4329C12.5374 92.7077 12.2085 92.0678 11.8636 91.3981C11.6674 91.0172 11.2705 90.3376 11.5271 89.89Z" fill="#C1DEE2"/>
<path fill-rule="evenodd" clip-rule="evenodd" d="M22.7766 83.6304C22.6176 88.2214 22.3434 92.7776 21.7313 97.3202C21.1066 101.956 20.3891 106.576 19.7881 111.216C19.203 115.732 18.5897 120.324 18.6714 124.903C18.7316 128.276 18.1723 133.983 21.9187 135.648C25.713 137.334 26.5269 130.134 26.7761 127.757C27.2535 123.198 27.099 118.59 26.8672 114.006C26.6294 109.301 26.2322 104.619 25.7401 99.9315C25.1934 94.7244 24.7645 89.4937 24.4203 84.2717C24.25 81.6888 24.208 79.1101 24.255 76.5265C24.2994 74.0886 24.2068 71.6254 23.34 69.3107C23.2946 69.3436 23.2495 69.3765 23.2041 69.4093" fill="#69A1AC"/>
<path fill-rule="evenodd" clip-rule="evenodd" d="M42.3648 98.175C41.6824 99.1691 40.9945 100.154 40.3501 101.206C39.1971 103.09 38.1544 105.186 37.8407 107.879C37.1843 113.517 37.7109 119.606 37.838 125.416C37.864 126.603 37.7139 127.755 38.1818 128.884C38.6061 129.909 39.3994 130.69 40.1556 130.686C41.7743 130.677 41.5273 126.713 41.53 124.968C41.5349 121.91 41.192 118.821 41.2215 115.766C41.2509 112.739 41.435 109.704 41.8739 106.829C42.3182 103.919 42.9688 101.125 43.8275 98.5178C43.9467 98.1559 44.8018 95.3599 43.9939 95.8418" fill="#89C5CC"/>
<path fill-rule="evenodd" clip-rule="evenodd" d="M35.2161 68.1072C34.1518 68.1072 34.1584 73.4127 34.1263 74.0942C34.0107 76.5535 34.0379 79.0134 33.9647 81.4731C33.8047 86.841 33.608 92.2559 32.8017 97.5618C32.3676 100.418 31.8643 103.262 31.3229 106.096C30.78 108.939 30.0512 111.779 29.6941 114.658C29.3511 117.425 29.5449 120.247 29.5919 123.028C29.639 125.826 29.7235 128.63 30.0901 131.403C30.1805 132.088 30.2866 132.77 30.4001 133.45C30.4946 134.017 30.4395 134.72 30.5995 135.259C30.8559 136.122 31.955 136.405 32.6952 136.27C34.6979 135.904 35.9772 133.39 36.6613 131.552C37.535 129.206 37.9986 126.661 38.456 124.189C38.9744 121.388 39.2781 118.544 39.4206 115.692C39.7103 109.897 39.3385 104.095 38.9234 98.3175C38.6924 95.1045 38.4257 91.9057 38.0175 88.7127C37.611 85.5333 37.0895 82.3681 36.75 79.1793C36.5032 76.862 36.2602 74.5416 36.1004 72.2154C36.0622 71.6608 36.03 68.1072 35.2161 68.1072Z" fill="#69A1AC"/>
<path fill-rule="evenodd" clip-rule="evenodd" d="M33.8838 106.673C33.7104 101.103 31.4712 76.6352 30.9618 69.8993C30.8344 68.2133 29.6079 61.1934 29.4488 59.2821C29.0174 59.8223 29.0543 68.2314 29.0591 70.1637C29.0641 72.075 28.827 73.9546 28.7051 75.8556C28.5808 77.7954 25.7131 102.847 25.341 104.711C24.6006 108.419 24.1051 112.224 23.7229 116.015C23.3507 119.71 22.7718 123.609 23.27 127.324C23.3845 128.179 23.5657 129.02 23.8608 129.806C24.1795 130.655 24.398 131.44 24.6539 132.328C25.0656 133.759 25.8104 135.014 26.9549 135.605C29.3014 136.816 30.5613 134.074 31.2001 131.688C32.2201 127.876 32.8749 124.002 33.1818 119.999C33.5214 115.57 34.0227 111.132 33.8838 106.673Z" fill="#89C5CC"/>
<rect x="9.03613" y="123.064" width="36.5042" height="36.5042" rx="0.802291" fill="white"/>
<rect x="5.02466" y="127.075" width="4.01145" height="45.3294" rx="0.802291" fill="#C5CFD6"/>
<rect x="25.082" y="127.075" width="4.01145" height="45.3294" rx="0.802291" fill="#C5CFD6"/>
<rect x="45.54" y="127.075" width="4.01145" height="45.3294" rx="0.802291" fill="#C5CFD6"/>
<defs>
<clipPath id="clip0_129_631">
<rect width="106.152" height="109.637" fill="white" transform="translate(36.7117 27.785)"/>
</clipPath>
<clipPath id="clip1_129_631">
<rect width="22.181" height="61.473" fill="white" transform="translate(115.613 69.6119)"/>
</clipPath>
<clipPath id="clip2_129_631">
<rect width="10.7736" height="50.0656" fill="white" transform="translate(121.316 75.3157)"/>
</clipPath>
<clipPath id="clip3_129_631">
<rect width="71.296" height="89.3577" fill="white" transform="translate(41.7817 41.7274)"/>
</clipPath>
<clipPath id="clip4_129_631">
<rect width="71.296" height="14.8929" fill="white" transform="translate(41.7817 41.7274)"/>
</clipPath>
<clipPath id="clip5_129_631">
<rect width="52.9175" height="5.95718" fill="white" transform="translate(44.6335 46.1952)"/>
</clipPath>
<clipPath id="clip6_129_631">
<rect width="71.296" height="12.358" fill="white" transform="translate(41.7817 59.1552)"/>
</clipPath>
<clipPath id="clip7_129_631">
<rect width="52.9175" height="4.94319" fill="white" transform="translate(44.6335 62.8624)"/>
</clipPath>
<clipPath id="clip8_129_631">
<rect width="71.296" height="12.358" fill="white" transform="translate(41.7817 74.0481)"/>
</clipPath>
<clipPath id="clip9_129_631">
<rect width="52.9175" height="4.94319" fill="white" transform="translate(44.6335 77.7552)"/>
</clipPath>
<clipPath id="clip10_129_631">
<rect width="71.296" height="12.358" fill="white" transform="translate(41.7817 118.727)"/>
</clipPath>
<clipPath id="clip11_129_631">
<rect width="52.9175" height="4.94319" fill="white" transform="translate(44.6335 122.434)"/>
</clipPath>
<clipPath id="clip12_129_631">
<rect width="71.296" height="12.358" fill="white" transform="translate(41.7817 103.834)"/>
</clipPath>
<clipPath id="clip13_129_631">
<rect width="52.9175" height="4.94319" fill="white" transform="translate(44.6335 107.542)"/>
</clipPath>
<clipPath id="clip14_129_631">
<rect width="71.296" height="12.358" fill="white" transform="translate(41.7817 88.9412)"/>
</clipPath>
<clipPath id="clip15_129_631">
<rect width="52.9175" height="4.94319" fill="white" transform="translate(44.6335 92.6483)"/>
</clipPath>
</defs>
</svg>
