<svg width="531" height="476" viewBox="0 0 531 476" fill="none" xmlns="http://www.w3.org/2000/svg">
<path fill-rule="evenodd" clip-rule="evenodd" d="M446.461 142.023C446.159 141.803 445.441 141.725 445.108 141.659C443.721 141.386 442.293 141.267 440.879 141.267C436.519 141.273 432.089 141.701 427.802 142.442C425.08 142.912 421.789 144.494 419.082 143.635C414.365 142.138 409.597 142.211 405.122 144.349C401.03 146.303 397.924 150.015 396.111 154.026C395.838 154.632 394.728 156.861 394.414 158.363C394.28 158.67 394.151 158.979 394.034 159.293C393.704 160.184 393.408 161.091 393.133 162C393.016 162.387 392.72 163.243 393.071 163.409C392.51 164.444 392.013 165.51 391.599 166.612C390.395 169.814 389.078 173.327 388.655 176.722C388.499 177.979 388.493 179.243 388.638 180.502C388.71 181.125 388.68 182.376 389.102 182.85C389.998 183.854 390.458 182.448 390.357 181.778C389.586 176.675 391.075 171.882 392.839 167.085C393.98 163.982 395.854 161.144 397.954 158.574C399.654 156.494 401.477 154.855 403.807 153.476C406.656 151.789 409.701 150.425 412.719 149.058C414.704 148.158 416.691 147.282 418.732 146.506C419.185 146.334 419.899 145.891 420.402 145.89C421.466 145.886 422.973 146.671 424.001 146.963C427.38 147.924 430.803 149.154 434.296 149.645C436.537 149.96 438.636 149.605 440.731 148.859C440.945 148.783 441.304 148.587 441.744 148.307C443.299 147.708 444.771 146.955 446.052 145.869C446.79 145.243 447.46 144.434 448.071 143.693C448.254 143.472 448.335 143.218 448.337 142.977C448.476 142.905 448.568 142.82 448.588 142.721C448.741 141.993 447.351 141.979 446.461 142.023" fill="#89C5CC"/>
<path fill-rule="evenodd" clip-rule="evenodd" d="M92.3216 202.773C91.4663 203.466 90.6275 204.173 89.8091 204.909C89.1854 205.47 88.0816 206.142 87.8577 206.992C87.6249 207.875 88.3597 208.702 88.9402 209.236C92.0099 212.06 95.4664 213.969 99.7199 214.287C106.269 214.776 111.969 213.103 117.652 209.812C121.643 207.5 124.287 204.081 124.865 199.464C129.619 201.439 134.216 204.163 138.123 207.505C140.051 209.154 141.711 210.981 143.247 213.006C144.231 214.304 145.182 215.622 146.065 216.991C146.449 217.586 146.839 218.64 147.473 218.983C148.217 219.385 149.116 218.755 149.079 217.927C149.048 217.239 148.305 216.441 147.957 215.878C147.38 214.944 146.794 214.015 146.177 213.106C145.179 211.635 144.147 210.184 143.021 208.807C140.492 205.714 137.274 203.158 133.938 200.979C127.538 196.798 120.514 194.164 112.727 193.941C107.939 193.804 103.911 195.44 99.8159 197.883C97.2666 199.404 94.6349 200.9 92.3216 202.773" fill="#DDE3E9"/>
<path fill-rule="evenodd" clip-rule="evenodd" d="M154.434 182.552C149.444 177.413 144.437 172.338 138.862 167.813C135.576 165.147 132.114 162.722 128.723 160.194C129.114 160.537 129.498 160.889 129.872 161.251C128.814 160.532 127.428 160.126 126.306 159.461C125.054 158.719 123.857 157.87 122.684 157.015C120.393 155.346 118.136 153.645 115.781 152.062C113.158 150.299 110.438 148.671 107.77 146.974C105.505 145.535 103.213 143.959 100.79 142.782C99.4699 142.141 98.1464 141.38 96.8205 140.711C96.3768 140.487 91.8742 137.644 91.8856 137.636C92.1345 137.448 94.4002 138.513 94.7506 138.656C95.7742 139.074 96.753 139.574 97.7371 140.073C97.197 139.007 96.7694 137.888 96.5367 136.71C96.4648 136.346 95.8887 133.698 96.1835 133.476C96.3307 133.365 97.7672 138.102 97.8408 138.558C97.9006 138.928 97.8918 139.46 98.0129 139.811C98.2084 140.376 98.1985 140.206 98.6292 140.524C99.4186 141.108 100.466 141.473 101.321 141.962C101.781 142.219 103.208 143.239 104.067 143.53C106.667 144.792 109.302 146.735 111.772 148.347C111.123 147.129 110.63 145.855 110.27 144.52C110.185 144.203 109.261 141.36 109.485 141.191C109.738 141.001 111.497 145.344 111.601 145.755C111.794 146.518 111.834 147.368 112.077 148.111C112.343 148.927 113.173 149.216 113.921 149.691C116.673 151.44 119.331 153.298 121.945 155.242C124.797 150.17 121.509 144.045 118.737 139.789C116.74 136.722 114.05 134.093 111.211 131.797C107.421 128.733 103.086 126.286 98.7552 124.047C93.7094 121.438 88.2558 119.822 82.5861 119.075C79.6208 118.685 76.587 118.696 73.5917 118.821C72.1285 118.882 70.724 119.076 69.3218 119.553C68.6898 119.768 68.079 120.04 67.4838 120.344C67.0315 120.574 65.9375 120.818 65.6775 121.162C63.537 123.948 62.4419 126.724 62.6092 130.225C62.7673 133.539 63.8139 136.855 65.2343 139.811C66.8162 143.102 68.8506 146.09 71.5114 148.597C73.5414 150.51 75.811 152.175 78.0656 153.818C86.0846 159.662 96.2512 164.745 106.637 163.439C109.999 163.017 113.197 161.841 116.185 160.243C116.889 159.867 117.589 159.486 118.254 159.042C118.702 158.742 119.9 157.392 120.35 157.343C120.968 157.275 122.299 158.532 122.879 158.915C127.284 161.823 131.574 164.888 135.774 168.077C140.242 171.471 144.491 175.095 148.615 178.89C150.369 180.504 152.112 182.121 153.815 183.789C154.211 184.177 155.181 185.607 155.9 185.671C156.355 185.712 156.661 185.324 156.596 184.904C156.484 184.172 154.945 183.078 154.434 182.552" fill="#C1DEE2"/>
<path fill-rule="evenodd" clip-rule="evenodd" d="M441.222 162.607C439.289 162.185 437.155 162.217 435.186 162.252C424.627 162.396 414.259 167.395 407.51 175.383C401.766 182.183 400.186 190.637 399.051 199.184C398.938 200.032 398.89 200.876 398.827 201.726C398.813 201.908 398.793 202.071 398.771 202.224C398.325 202.623 398.09 203.089 398.355 203.6C397.371 205.752 396.54 207.958 395.826 210.233C393.725 216.931 391.589 223.757 392.905 230.8C393.212 226.924 393.859 222.961 394.633 219.148C394.677 218.929 394.725 218.712 394.775 218.496C394.781 218.473 394.785 218.45 394.79 218.428C395.064 217.26 395.42 216.128 395.853 215.013C395.858 215.001 395.862 214.989 395.867 214.977C395.924 214.83 395.985 214.684 396.045 214.538C396.169 214.236 396.296 213.935 396.431 213.635C396.477 213.533 396.521 213.43 396.563 213.326C397.193 211.781 397.459 210.04 398.024 208.442C398.159 208.079 398.3 207.717 398.448 207.357C398.457 207.335 398.466 207.314 398.474 207.293C398.874 206.324 399.316 205.367 399.783 204.42C400.037 204.229 400.173 203.755 400.392 203.325C400.437 203.24 400.791 202.675 400.896 202.349C401.171 201.817 401.446 201.285 401.723 200.754C401.714 200.757 401.706 200.76 401.698 200.763C401.975 200.253 402.253 199.745 402.529 199.239C402.59 199.128 402.651 199.017 402.712 198.905C402.811 198.728 402.91 198.551 403.009 198.374C403.934 196.719 404.915 195.096 405.933 193.495C406.297 192.923 407.165 192.103 407.331 191.461C407.337 191.437 407.339 191.415 407.343 191.392C409.553 188.288 412.097 185.425 415.148 183.157C414.779 183.556 413.995 184.909 413.788 185.176C413.154 185.996 412.465 186.76 411.774 187.533C410.536 188.917 409.328 190.345 408.254 191.855C406.29 194.617 404.596 197.524 402.994 200.489C402.979 200.506 402.963 200.523 402.948 200.54C402.143 201.533 401.637 203.032 401.057 204.167C403.35 203.105 405.886 202.413 408.239 201.47C410.586 200.53 412.869 199.483 415.073 198.254C418.002 196.62 421.041 194.775 423.808 192.688C426.98 190.72 429.646 188.012 431.998 185.17C434.782 181.808 437.333 178.416 438.911 174.333C439.686 172.327 440.295 170.235 440.657 168.119C440.673 168.027 440.693 167.927 440.715 167.823C441.085 167.092 441.415 166.344 441.693 165.58C442.133 164.367 443.174 163.033 441.222 162.607" fill="#69A1AC"/>
<path fill-rule="evenodd" clip-rule="evenodd" d="M73.8323 169.441C73.0664 168.677 72.2062 167.988 71.1962 167.497C70.9409 167.373 69.0389 166.541 68.915 166.723C68.6265 167.149 73.6022 169.197 73.8323 169.441M82.85 164.34C82.8438 164.372 83.5033 165.403 83.6828 165.72C84.065 166.393 84.4178 167.08 84.7498 167.768C84.2583 166.553 83.7534 165.426 82.85 164.34M36.7306 172.728C36.0954 172.916 35.3317 172.174 36.1556 171.991C36.8222 171.844 36.7896 171.81 37.0889 171.315C37.3319 170.914 37.4817 170.424 37.695 170.003C38.1474 169.109 38.6606 168.257 39.2905 167.458C40.6406 165.746 42.2855 164.271 44.1304 163.028C47.3502 160.858 50.9602 158.876 54.7897 157.879C60.8787 156.296 67.8088 156.198 73.9073 157.296C77.6842 157.976 81.136 159.158 83.6439 161.958C84.8975 163.358 85.8814 164.997 86.3115 166.803C86.4238 167.275 86.4028 167.799 86.5433 168.261C86.7593 168.972 86.664 168.782 87.5662 168.921C88.5514 169.072 89.5357 169.226 90.5198 169.382C93.0964 169.793 95.6881 170.228 98.1987 170.894C99.025 171.113 99.8332 171.381 100.623 171.692C101.22 171.928 103.597 172.666 103.886 173.38C104.367 174.569 102.756 174.03 102.255 173.771C101.816 173.544 101.366 173.333 100.909 173.138C99.7591 172.648 98.5606 172.269 97.3351 171.967C96.0107 171.641 94.6592 171.397 93.313 171.153C92.0575 170.926 90.7974 170.719 89.5356 170.522C88.8346 170.412 88.1331 170.305 87.4315 170.199C87.1919 170.162 86.7692 169.971 86.8012 170.258C85.3262 169.996 83.7312 170.034 82.2288 169.962C80.3886 169.873 78.5416 169.801 76.6953 169.854C75.3637 169.892 74.0309 169.973 72.706 170.137C71.9319 170.234 71.1701 170.375 70.4105 170.553C69.9933 170.651 68.3481 170.859 68.1208 171.194C68.2185 171.05 70.0342 171.189 70.2653 171.181C71.1897 171.149 72.1069 171.065 73.0279 170.97C74.737 170.794 76.4469 170.702 78.1612 170.716C78.1547 170.993 76.9836 171.487 76.6978 171.67C76.0568 172.082 75.4429 172.532 74.8702 173.024C73.8612 173.892 72.6531 174.968 71.9552 175.996C72.1609 175.693 73.1755 175.298 73.5356 175.067C74.1124 174.696 74.6775 174.3 75.2122 173.877C75.7058 173.486 76.1664 173.064 76.6193 172.633C77.0723 172.202 77.687 171.305 78.2821 171.018C78.3181 171 78.5775 171.189 78.7249 171.125C78.8734 171.06 79.0585 170.737 79.0962 170.724C79.6502 170.527 80.7024 170.772 81.2848 170.797C82.7952 170.861 84.3042 170.944 85.8136 171.021C86.2812 171.045 86.6785 170.947 86.8551 171.264C87.0433 171.603 86.6985 172.493 86.6004 172.862C86.2365 174.233 85.5901 175.461 84.5726 176.523C82.6672 178.511 80.3176 179.837 77.6632 180.724C67.4964 184.12 56.6802 185.48 46.5165 181.947C42.3087 180.484 35.9718 177.871 36.7306 172.728" fill="#89C5CC"/>
<g opacity="0.6" clip-path="url(#clip0_193_464)">
<path fill-rule="evenodd" clip-rule="evenodd" d="M502.047 332.741C508.96 375.854 341.291 403.976 196.973 384.351C52.656 364.725 -13.5499 288.086 55.3159 247.249C124.182 206.413 495.133 289.627 502.047 332.741Z" fill="#DDE3E9"/>
</g>
<g clip-path="url(#clip1_193_464)">
<rect x="133.533" y="74.4" width="90.1" height="171.133" rx="4.53333" fill="#F2F2F2"/>
<path fill-rule="evenodd" clip-rule="evenodd" d="M178.3 234.767C182.994 234.767 186.8 230.961 186.8 226.267C186.8 221.572 182.994 217.767 178.3 217.767C173.606 217.767 169.8 221.572 169.8 226.267C169.8 230.961 173.606 234.767 178.3 234.767Z" fill="white"/>
<path fill-rule="evenodd" clip-rule="evenodd" d="M170.933 85.7333C171.559 85.7333 172.067 85.2259 172.067 84.6C172.067 83.9741 171.559 83.4667 170.933 83.4667C170.307 83.4667 169.8 83.9741 169.8 84.6C169.8 85.2259 170.307 85.7333 170.933 85.7333Z" fill="white"/>
<rect x="174.9" y="83.4667" width="11.9" height="2.26667" rx="1.13333" fill="white"/>
<g clip-path="url(#clip2_193_464)">
<g clip-path="url(#clip3_193_464)">
<rect x="141.467" y="90.2667" width="74.2333" height="30.6" rx="2.26667" fill="white"/>
<g clip-path="url(#clip4_193_464)">
<rect x="163.567" y="99.4467" width="41.3667" height="4.59" rx="1.7" fill="#DDE3E9"/>
<rect x="163.567" y="107.097" width="27.7667" height="4.59" rx="1.7" fill="#DDE3E9"/>
</g>
<path fill-rule="evenodd" clip-rule="evenodd" d="M153.367 112.367C157.122 112.367 160.167 109.322 160.167 105.567C160.167 101.811 157.122 98.7667 153.367 98.7667C149.611 98.7667 146.567 101.811 146.567 105.567C146.567 109.322 149.611 112.367 153.367 112.367Z" fill="#C5CFD6"/>
</g>
<g clip-path="url(#clip5_193_464)">
<rect x="141.467" y="125.4" width="74.2333" height="23.8" rx="2.26667" fill="white"/>
<g clip-path="url(#clip6_193_464)">
<rect x="163.567" y="132.54" width="41.3667" height="3.57" rx="1.7" fill="#DDE3E9"/>
<rect x="163.567" y="138.49" width="27.7667" height="3.57" rx="1.7" fill="#DDE3E9"/>
</g>
<path fill-rule="evenodd" clip-rule="evenodd" d="M153.367 144.1C157.122 144.1 160.167 141.056 160.167 137.3C160.167 133.544 157.122 130.5 153.367 130.5C149.611 130.5 146.567 133.544 146.567 137.3C146.567 141.056 149.611 144.1 153.367 144.1Z" fill="#C5CFD6"/>
</g>
<g clip-path="url(#clip7_193_464)">
<rect x="141.467" y="153.733" width="74.2333" height="23.8" rx="2.26667" fill="white"/>
<g clip-path="url(#clip8_193_464)">
<rect x="163.567" y="160.873" width="41.3667" height="3.57" rx="1.7" fill="#DDE3E9"/>
<rect x="163.567" y="166.823" width="27.7667" height="3.57" rx="1.7" fill="#DDE3E9"/>
</g>
<path fill-rule="evenodd" clip-rule="evenodd" d="M153.367 172.433C157.122 172.433 160.167 169.389 160.167 165.633C160.167 161.878 157.122 158.833 153.367 158.833C149.611 158.833 146.567 161.878 146.567 165.633C146.567 169.389 149.611 172.433 153.367 172.433Z" fill="#AFB9C5"/>
</g>
<g clip-path="url(#clip9_193_464)">
<rect x="141.467" y="182.067" width="74.2333" height="23.8" rx="2.26667" fill="white"/>
<g clip-path="url(#clip10_193_464)">
<rect x="163.567" y="189.207" width="41.3667" height="3.57" rx="1.7" fill="#DDE3E9"/>
<rect x="163.567" y="195.157" width="27.7667" height="3.57" rx="1.7" fill="#DDE3E9"/>
</g>
<path fill-rule="evenodd" clip-rule="evenodd" d="M153.367 200.767C157.122 200.767 160.167 197.722 160.167 193.967C160.167 190.211 157.122 187.167 153.367 187.167C149.611 187.167 146.567 190.211 146.567 193.967C146.567 197.722 149.611 200.767 153.367 200.767Z" fill="#C5CFD6"/>
</g>
</g>
</g>
<g clip-path="url(#clip11_193_464)">
<path fill-rule="evenodd" clip-rule="evenodd" d="M150.613 212.667C149.862 212.667 149.113 212.682 148.364 212.721C147.792 212.751 146.919 212.632 146.435 212.988C145.933 213.358 145.967 214.116 146.046 214.651C146.461 217.479 147.473 219.988 149.592 221.992C152.854 225.077 156.594 226.645 161.019 227.343C164.128 227.834 166.997 227.153 169.285 224.942C170.957 228.045 172.226 231.479 172.862 234.945C173.176 236.655 173.272 238.345 173.217 240.086C173.181 241.202 173.12 242.314 173 243.425C172.948 243.907 172.702 244.637 172.891 245.093C173.113 245.628 173.86 245.68 174.196 245.224C174.475 244.844 174.424 244.098 174.481 243.648C174.576 242.901 174.664 242.154 174.727 241.404C174.83 240.189 174.905 238.971 174.9 237.752C174.887 235.013 174.278 232.264 173.445 229.664C171.847 224.676 169.254 220.243 165.222 216.764C162.742 214.626 159.904 213.76 156.685 213.295C154.68 213.005 152.643 212.667 150.613 212.667" fill="#89C5CC"/>
<path fill-rule="evenodd" clip-rule="evenodd" d="M162.19 232.5C154.088 232.5 148.631 239.03 146.05 245.818C145.078 248.376 144.85 251.185 144.475 253.872C144.354 254.734 144.399 256.047 144.049 256.815C143.922 257.094 143.631 257.194 143.77 257.573C143.854 257.803 144.02 257.944 144.268 257.989C144.778 258.083 145.498 257.528 145.935 257.309C149.56 255.491 151.941 252.681 153.884 249.242C155.088 247.111 156.31 244.898 157.025 242.558C157.462 241.129 157.717 239.623 157.866 238.141C157.925 237.557 157.982 236.959 157.978 236.371C157.975 235.788 157.704 235.48 157.509 234.973C160.212 233.949 163.264 233.67 166.003 234.731C168.536 235.712 170.64 237.607 171.818 239.989C172.124 240.608 172.36 241.261 172.532 241.927C172.645 242.363 172.65 242.929 172.859 243.324C173.364 244.28 174.429 243.64 174.327 242.75C174.042 240.268 172.621 237.775 170.806 236.049C168.516 233.872 165.413 232.5 162.19 232.5" fill="#89C5CC"/>
<rect x="170.933" y="89.1333" width="90.1" height="171.133" rx="4.53333" fill="#DDE3E9"/>
<path fill-rule="evenodd" clip-rule="evenodd" d="M215.7 249.5C220.394 249.5 224.2 245.694 224.2 241C224.2 236.306 220.394 232.5 215.7 232.5C211.006 232.5 207.2 236.306 207.2 241C207.2 245.694 211.006 249.5 215.7 249.5Z" fill="white"/>
<path fill-rule="evenodd" clip-rule="evenodd" d="M208.333 100.467C208.959 100.467 209.467 99.9593 209.467 99.3333C209.467 98.7074 208.959 98.2 208.333 98.2C207.707 98.2 207.2 98.7074 207.2 99.3333C207.2 99.9593 207.707 100.467 208.333 100.467Z" fill="white"/>
<rect x="212.3" y="98.2" width="11.9" height="2.26667" rx="1.13333" fill="white"/>
<g clip-path="url(#clip12_193_464)">
<g clip-path="url(#clip13_193_464)">
<rect x="178.867" y="105" width="74.2333" height="30.6" rx="2.26667" fill="white"/>
<g clip-path="url(#clip14_193_464)">
<rect x="183.967" y="114.18" width="41.3667" height="4.59" rx="1.7" fill="#DDE3E9"/>
<rect x="183.967" y="121.83" width="27.7667" height="4.59" rx="1.7" fill="#DDE3E9"/>
</g>
<path fill-rule="evenodd" clip-rule="evenodd" d="M245.167 124.267C247.357 124.267 249.133 122.491 249.133 120.3C249.133 118.109 247.357 116.333 245.167 116.333C242.976 116.333 241.2 118.109 241.2 120.3C241.2 122.491 242.976 124.267 245.167 124.267Z" fill="#DDE3E9"/>
<path fill-rule="evenodd" clip-rule="evenodd" d="M245.167 122C246.105 122 246.867 121.239 246.867 120.3C246.867 119.361 246.105 118.6 245.167 118.6C244.228 118.6 243.467 119.361 243.467 120.3C243.467 121.239 244.228 122 245.167 122Z" fill="#F2F2F2"/>
</g>
<g clip-path="url(#clip15_193_464)">
<rect x="178.867" y="140.133" width="74.2333" height="23.8" rx="2.26667" fill="white"/>
<g clip-path="url(#clip16_193_464)">
<rect x="200.967" y="147.273" width="41.3667" height="3.57" rx="1.7" fill="#DDE3E9"/>
<rect x="200.967" y="153.223" width="27.7667" height="3.57" rx="1.7" fill="#DDE3E9"/>
</g>
<path fill-rule="evenodd" clip-rule="evenodd" d="M190.767 158.833C194.522 158.833 197.567 155.789 197.567 152.033C197.567 148.278 194.522 145.233 190.767 145.233C187.011 145.233 183.967 148.278 183.967 152.033C183.967 155.789 187.011 158.833 190.767 158.833Z" fill="#C5CFD6"/>
</g>
<g clip-path="url(#clip17_193_464)">
<rect x="178.867" y="168.467" width="74.2333" height="23.8" rx="2.26667" fill="white"/>
<g clip-path="url(#clip18_193_464)">
<rect x="183.967" y="175.607" width="41.3667" height="3.57" rx="1.7" fill="#DDE3E9"/>
<rect x="183.967" y="181.557" width="27.7667" height="3.57" rx="1.7" fill="#AFB9C5"/>
</g>
<path fill-rule="evenodd" clip-rule="evenodd" d="M245.167 184.333C247.357 184.333 249.133 182.557 249.133 180.367C249.133 178.176 247.357 176.4 245.167 176.4C242.976 176.4 241.2 178.176 241.2 180.367C241.2 182.557 242.976 184.333 245.167 184.333Z" fill="#DDE3E9"/>
<path fill-rule="evenodd" clip-rule="evenodd" d="M245.167 182.067C246.105 182.067 246.867 181.306 246.867 180.367C246.867 179.428 246.105 178.667 245.167 178.667C244.228 178.667 243.467 179.428 243.467 180.367C243.467 181.306 244.228 182.067 245.167 182.067Z" fill="#F2F2F2"/>
</g>
<g clip-path="url(#clip19_193_464)">
<rect x="178.867" y="196.8" width="74.2333" height="23.8" rx="2.26667" fill="white"/>
<g clip-path="url(#clip20_193_464)">
<rect x="200.967" y="203.94" width="41.3667" height="3.57" rx="1.7" fill="#DDE3E9"/>
<rect x="200.967" y="209.89" width="27.7667" height="3.57" rx="1.7" fill="#DDE3E9"/>
</g>
<path fill-rule="evenodd" clip-rule="evenodd" d="M190.767 215.5C194.522 215.5 197.567 212.456 197.567 208.7C197.567 204.944 194.522 201.9 190.767 201.9C187.011 201.9 183.967 204.944 183.967 208.7C183.967 212.456 187.011 215.5 190.767 215.5Z" fill="#C5CFD6"/>
</g>
</g>
</g>
<g clip-path="url(#clip21_193_464)">
<rect x="208.333" y="103.3" width="189.833" height="196.067" rx="4.53333" fill="#F2F2F2"/>
<rect x="349.433" y="127.667" width="39.6667" height="45.9" rx="4.53333" fill="white"/>
<path fill-rule="evenodd" clip-rule="evenodd" d="M369.267 154.3C374.274 154.3 378.333 150.241 378.333 145.233C378.333 140.226 374.274 136.167 369.267 136.167C364.259 136.167 360.2 140.226 360.2 145.233C360.2 150.241 364.259 154.3 369.267 154.3Z" fill="#DDE3E9"/>
<rect x="355.1" y="156.567" width="28.3333" height="3.4" rx="1.7" fill="#DDE3E9"/>
<rect x="359.633" y="162.233" width="19.2667" height="3.4" rx="1.7" fill="#DDE3E9"/>
<path d="M208.333 107.833C208.333 105.33 210.363 103.3 212.867 103.3H393.633C396.137 103.3 398.167 105.33 398.167 107.833V118.6H208.333V107.833Z" fill="#C5CFD6"/>
<path fill-rule="evenodd" clip-rule="evenodd" d="M215.7 113.5C216.952 113.5 217.967 112.485 217.967 111.233C217.967 109.981 216.952 108.967 215.7 108.967C214.448 108.967 213.433 109.981 213.433 111.233C213.433 112.485 214.448 113.5 215.7 113.5Z" fill="#F2F2F2"/>
<path fill-rule="evenodd" clip-rule="evenodd" d="M222.5 113.5C223.752 113.5 224.767 112.485 224.767 111.233C224.767 109.981 223.752 108.967 222.5 108.967C221.248 108.967 220.233 109.981 220.233 111.233C220.233 112.485 221.248 113.5 222.5 113.5Z" fill="#F2F2F2"/>
<path fill-rule="evenodd" clip-rule="evenodd" d="M229.3 113.5C230.552 113.5 231.567 112.485 231.567 111.233C231.567 109.981 230.552 108.967 229.3 108.967C228.048 108.967 227.033 109.981 227.033 111.233C227.033 112.485 228.048 113.5 229.3 113.5Z" fill="#F2F2F2"/>
<g clip-path="url(#clip22_193_464)">
<rect x="349.433" y="178.1" width="39.6667" height="109.933" rx="4.53333" fill="white"/>
<g clip-path="url(#clip23_193_464)">
<rect x="359.633" y="188.3" width="19.2667" height="14.7333" rx="2.26667" fill="#DDE3E9"/>
<rect x="359.633" y="207.567" width="19.2667" height="14.1667" rx="2.26667" fill="#AFB9C5"/>
<rect x="359.633" y="226.267" width="19.2667" height="14.1667" rx="2.26667" fill="#DDE3E9"/>
<rect x="359.633" y="263.667" width="19.2667" height="14.1667" rx="2.26667" fill="#DDE3E9"/>
<rect x="359.633" y="244.967" width="19.2667" height="14.1667" rx="2.26667" fill="#C5CFD6"/>
</g>
</g>
<g clip-path="url(#clip24_193_464)">
<g clip-path="url(#clip25_193_464)">
<rect x="217.4" y="128.233" width="127.5" height="26.6333" rx="2.26667" fill="white"/>
<g clip-path="url(#clip26_193_464)">
<rect x="222.5" y="136.223" width="94.6333" height="3.995" rx="1.7" fill="#DDE3E9"/>
<rect x="222.5" y="142.882" width="63.521" height="3.995" rx="1.7" fill="#DDE3E9"/>
</g>
<path fill-rule="evenodd" clip-rule="evenodd" d="M331.274 145.517C333.465 145.517 335.241 143.741 335.241 141.55C335.241 139.359 333.465 137.583 331.274 137.583C329.083 137.583 327.307 139.359 327.307 141.55C327.307 143.741 329.083 145.517 331.274 145.517Z" fill="#DDE3E9"/>
<path fill-rule="evenodd" clip-rule="evenodd" d="M331.274 143.25C332.213 143.25 332.974 142.489 332.974 141.55C332.974 140.611 332.213 139.85 331.274 139.85C330.335 139.85 329.574 140.611 329.574 141.55C329.574 142.489 330.335 143.25 331.274 143.25Z" fill="#F2F2F2"/>
</g>
<g clip-path="url(#clip27_193_464)">
<rect x="217.4" y="159.4" width="127.5" height="22.1" rx="2.26667" fill="white"/>
<g clip-path="url(#clip28_193_464)">
<rect x="222.5" y="166.03" width="94.6333" height="3.315" rx="1.6575" fill="#DDE3E9"/>
<rect x="222.5" y="171.555" width="63.521" height="3.315" rx="1.6575" fill="#DDE3E9"/>
</g>
<path fill-rule="evenodd" clip-rule="evenodd" d="M331.274 174.417C333.465 174.417 335.241 172.641 335.241 170.45C335.241 168.259 333.465 166.483 331.274 166.483C329.083 166.483 327.307 168.259 327.307 170.45C327.307 172.641 329.083 174.417 331.274 174.417Z" fill="#DDE3E9"/>
<path fill-rule="evenodd" clip-rule="evenodd" d="M331.274 172.15C332.213 172.15 332.974 171.389 332.974 170.45C332.974 169.511 332.213 168.75 331.274 168.75C330.335 168.75 329.574 169.511 329.574 170.45C329.574 171.389 330.335 172.15 331.274 172.15Z" fill="#F2F2F2"/>
</g>
<g clip-path="url(#clip29_193_464)">
<rect x="217.4" y="186.033" width="127.5" height="22.1" rx="2.26667" fill="white"/>
<g clip-path="url(#clip30_193_464)">
<rect x="222.5" y="192.663" width="94.6333" height="3.315" rx="1.6575" fill="#DDE3E9"/>
<rect x="222.5" y="198.188" width="63.521" height="3.315" rx="1.6575" fill="#DDE3E9"/>
</g>
<path fill-rule="evenodd" clip-rule="evenodd" d="M331.274 201.05C333.465 201.05 335.241 199.274 335.241 197.083C335.241 194.893 333.465 193.117 331.274 193.117C329.083 193.117 327.307 194.893 327.307 197.083C327.307 199.274 329.083 201.05 331.274 201.05Z" fill="#DDE3E9"/>
<path fill-rule="evenodd" clip-rule="evenodd" d="M331.274 198.783C332.213 198.783 332.974 198.022 332.974 197.083C332.974 196.144 332.213 195.383 331.274 195.383C330.335 195.383 329.574 196.144 329.574 197.083C329.574 198.022 330.335 198.783 331.274 198.783Z" fill="#AFB9C5"/>
</g>
<g clip-path="url(#clip31_193_464)">
<rect x="217.4" y="265.933" width="127.5" height="22.1" rx="2.26667" fill="white"/>
<g clip-path="url(#clip32_193_464)">
<rect x="222.5" y="272.563" width="94.6333" height="3.315" rx="1.6575" fill="#DDE3E9"/>
<rect x="222.5" y="278.088" width="63.521" height="3.315" rx="1.6575" fill="#DDE3E9"/>
</g>
<path fill-rule="evenodd" clip-rule="evenodd" d="M331.274 280.95C333.465 280.95 335.241 279.174 335.241 276.983C335.241 274.793 333.465 273.017 331.274 273.017C329.083 273.017 327.307 274.793 327.307 276.983C327.307 279.174 329.083 280.95 331.274 280.95Z" fill="#DDE3E9"/>
<path fill-rule="evenodd" clip-rule="evenodd" d="M331.274 278.683C332.213 278.683 332.974 277.922 332.974 276.983C332.974 276.044 332.213 275.283 331.274 275.283C330.335 275.283 329.574 276.044 329.574 276.983C329.574 277.922 330.335 278.683 331.274 278.683Z" fill="#F2F2F2"/>
</g>
<g clip-path="url(#clip33_193_464)">
<rect x="217.4" y="239.3" width="127.5" height="22.1" rx="2.26667" fill="white"/>
<g clip-path="url(#clip34_193_464)">
<rect x="222.5" y="245.93" width="94.6333" height="3.315" rx="1.6575" fill="#DDE3E9"/>
<rect x="222.5" y="251.455" width="63.521" height="3.315" rx="1.6575" fill="#DDE3E9"/>
</g>
<path fill-rule="evenodd" clip-rule="evenodd" d="M331.274 254.317C333.465 254.317 335.241 252.541 335.241 250.35C335.241 248.159 333.465 246.383 331.274 246.383C329.083 246.383 327.307 248.159 327.307 250.35C327.307 252.541 329.083 254.317 331.274 254.317Z" fill="#DDE3E9"/>
<path fill-rule="evenodd" clip-rule="evenodd" d="M331.274 252.05C332.213 252.05 332.974 251.289 332.974 250.35C332.974 249.411 332.213 248.65 331.274 248.65C330.335 248.65 329.574 249.411 329.574 250.35C329.574 251.289 330.335 252.05 331.274 252.05Z" fill="#F2F2F2"/>
</g>
<g clip-path="url(#clip35_193_464)">
<rect x="217.4" y="212.667" width="127.5" height="22.1" rx="2.26667" fill="white"/>
<g clip-path="url(#clip36_193_464)">
<rect x="222.5" y="219.297" width="94.6333" height="3.315" rx="1.6575" fill="#DDE3E9"/>
<rect x="222.5" y="224.822" width="63.521" height="3.315" rx="1.6575" fill="#DDE3E9"/>
</g>
<path fill-rule="evenodd" clip-rule="evenodd" d="M331.274 227.683C333.465 227.683 335.241 225.907 335.241 223.717C335.241 221.526 333.465 219.75 331.274 219.75C329.083 219.75 327.307 221.526 327.307 223.717C327.307 225.907 329.083 227.683 331.274 227.683Z" fill="#DDE3E9"/>
<path fill-rule="evenodd" clip-rule="evenodd" d="M331.274 225.417C332.213 225.417 332.974 224.656 332.974 223.717C332.974 222.778 332.213 222.017 331.274 222.017C330.335 222.017 329.574 222.778 329.574 223.717C329.574 224.656 330.335 225.417 331.274 225.417Z" fill="#F2F2F2"/>
</g>
</g>
</g>
<path fill-rule="evenodd" clip-rule="evenodd" d="M445.192 199.846C442.957 198.331 439.984 197.933 437.31 197.933C426.863 197.933 417.043 201.809 408.56 207.585C403.912 210.749 399.753 214.779 396.082 218.975C393.963 221.397 392.074 224.017 390.736 226.931C389.833 228.898 389.214 230.948 388.794 233.061C388.282 235.638 387.875 238.266 387.692 240.885C387.619 241.916 387.02 247.389 388.735 247.481C388.725 247.616 388.723 247.745 388.733 247.86C385.01 253.682 382.709 260.505 380.576 266.973C378.72 272.602 377.066 278.279 375.993 284.102C374.579 291.769 373.651 299.551 373.209 307.328C373.115 308.999 373.05 310.672 372.993 312.345C372.946 313.773 372.898 315.2 372.851 316.628C372.799 318.227 372.517 320.069 372.771 321.659C372.993 323.044 374.192 322.835 374.244 321.457C374.309 319.792 374.298 318.124 374.371 316.459C374.468 314.248 374.568 312.038 374.676 309.828C375.429 294.476 378.254 279.349 383.468 264.848C385.578 258.979 387.996 253.424 391.103 247.995C393.835 243.222 397.121 238.602 400.481 234.298C403.746 230.116 407.14 226.03 411.141 222.487C414.387 219.612 417.958 217.107 421.629 214.776C426.291 211.816 430.944 208.927 435.994 206.655C438.62 205.474 441.294 204.416 443.94 203.283C444.416 203.079 444.926 202.881 445.384 202.645C446.911 201.858 446.409 200.671 445.192 199.846" fill="#C1DEE2"/>
<path fill-rule="evenodd" clip-rule="evenodd" d="M403.163 253.467C407.401 253.467 411.171 254.017 415.075 255.701C418.445 257.154 421.516 259.078 424.498 261.173C428.692 264.119 431.996 267.547 434.308 272.09C435.69 274.804 436.703 278.644 435.775 281.604C434.682 285.091 431.682 287.999 427.729 287.384C425.285 287.005 423.045 285.387 421.187 283.864C418.965 282.043 417.186 279.852 415.718 277.42C413.322 273.452 411.914 268.966 409.879 264.819C408.913 262.851 407.979 260.869 406.823 258.999C406.25 258.072 405.64 257.155 404.772 256.467C404.307 256.099 402.347 255.461 403.097 254.634C392.109 254.779 382.375 263.218 380.265 273.663C380.069 274.637 379.915 275.618 379.753 276.598C379.651 277.216 379.692 279.497 379.139 279.892C377.92 280.764 378.432 278.116 378.485 277.735C378.62 276.75 378.764 275.765 378.915 274.782C379.739 269.436 382.119 264.466 386.088 260.654C390.627 256.294 396.751 253.467 403.163 253.467" fill="#89C5CC"/>
<path fill-rule="evenodd" clip-rule="evenodd" d="M42.4649 272.617C53.0426 290.363 65.3623 307.545 72.7606 326.947C72.4625 324.66 72.1464 322.376 71.7925 320.094C69.9153 308.001 67.5822 295.997 65.1305 284.006C63.882 277.902 62.5615 271.819 61.2071 265.737C60.4787 262.47 59.7592 259.201 59.0158 255.938C58.8357 255.147 58.681 253.766 58.4556 252.367C65.6456 275.961 72.5792 299.573 77.6509 323.734C78.3163 326.905 78.8829 330.07 79.347 333.23C79.5058 332.509 79.6619 331.788 79.8328 331.069C81.8849 322.452 84.9632 313.903 88.6283 305.846C90.3805 301.992 92.3931 298.223 94.7628 294.711C96.2405 292.522 99.7253 289.92 101.073 287.678C93.7011 301.2 91.0391 318.118 86.7824 332.818C85.7434 336.406 84.698 339.987 83.6736 343.575C90.093 330.701 100.053 320.124 113.9 315.54C97.1383 326.615 87.0843 346.011 80.3094 365.847C80.287 366.082 80.2605 366.318 80.2376 366.553C82.2312 362.77 84.7424 359.347 88.146 356.95C95.4306 351.819 103.512 353.314 110.578 357.716C105.032 354.19 95.009 357.4 90.3427 360.983C87.0021 363.548 84.1472 366.989 81.6681 370.346C81.074 371.151 80.2636 372.09 79.4074 373.092C78.207 380.884 76.2508 388.623 73.4812 396.3C73.9383 394.096 73.6078 390.572 73.7346 388.93C73.7484 388.752 73.7595 388.574 73.7732 388.396C73.3522 390.077 72.9455 391.739 72.5539 393.374C73.3324 390.254 73.7555 386.997 74.0857 383.707C74.1708 382.292 74.2538 380.878 74.3414 379.464C74.3136 376.78 74.2031 374.086 74.0161 371.387C73.3532 368.764 72.611 366.29 71.9988 364.233C69.79 356.809 66.5519 349.697 62.5663 343.062C58.9299 337.007 54.5772 331.523 49.5522 326.563C46.8433 323.89 44.0083 321.344 41.2132 318.763C40.2025 317.83 38.3959 315.535 36.8335 314.339C48.2124 320.612 59.9245 327.399 68.2255 337.507C67.2523 333.77 66.1953 330.086 65.0771 326.475C59.4045 308.158 52.2419 289.173 42.4649 272.617Z" fill="#DDE3E9"/>
<path fill-rule="evenodd" clip-rule="evenodd" d="M53.8335 373.067C53.8335 393.409 55.4444 409.9 77.0668 409.9C98.6892 409.9 100.3 393.409 100.3 373.067" fill="#C5CFD6"/>
<rect x="350" y="78.9333" width="3.4" height="14.1667" rx="1.7" fill="#DDE3E9"/>
<rect x="357.933" y="69.8667" width="3.4" height="23.2333" rx="1.7" fill="#DDE3E9"/>
<rect x="365.866" y="65.3333" width="3.4" height="27.7667" rx="1.7" fill="#DDE3E9"/>
<rect x="373.8" y="69.8667" width="3.4" height="23.2333" rx="1.7" fill="#DDE3E9"/>
<rect x="381.733" y="60.8" width="3.4" height="32.3" rx="1.7" fill="#C5CFD6"/>
<path fill-rule="evenodd" clip-rule="evenodd" d="M71.1999 234.345C71.1999 228.033 76.301 222.867 82.5332 222.867V234.345L74.788 242.7C72.5848 240.657 71.1999 237.661 71.1999 234.345Z" fill="#F2F2F2"/>
<path fill-rule="evenodd" clip-rule="evenodd" d="M82.2331 234.2H93.6782C93.6782 237.159 92.4713 239.931 90.5634 241.945C88.465 244.148 85.4767 245.533 82.2331 245.533C79.2454 245.533 76.5106 244.338 74.4116 242.449L82.2331 234.2Z" fill="#AFB9C5"/>
<path fill-rule="evenodd" clip-rule="evenodd" d="M93.8665 234.2C93.8665 227.968 88.7653 222.867 82.5331 222.867V234.2H93.8665ZM76.8664 222.867L81.3997 233.067L71.1997 228.533C72.2084 225.889 74.4733 223.875 76.8664 222.867Z" fill="#C5CFD6"/>
<path fill-rule="evenodd" clip-rule="evenodd" d="M439.968 239.401C438.879 240.557 437.336 241.283 435.621 241.283C432.324 241.283 429.652 238.619 429.652 235.333C429.652 232.047 432.324 229.383 435.621 229.383V218.333C426.243 218.333 418.567 225.985 418.567 235.333C418.567 244.682 426.243 252.333 435.621 252.333C440.547 252.333 444.999 250.256 448.033 246.951L439.968 239.401Z" fill="#F2F2F2"/>
<path fill-rule="evenodd" clip-rule="evenodd" d="M435.567 218.333V229.383C438.853 229.383 441.517 232.047 441.517 235.333H452.567C452.567 225.985 444.915 218.333 435.567 218.333Z" fill="#AFB9C5"/>
<path fill-rule="evenodd" clip-rule="evenodd" d="M441.288 235.333C441.288 237.264 440.379 238.98 438.967 240.088L445.915 248.933C449.96 245.767 452.567 240.858 452.567 235.333H441.288Z" fill="#C5CFD6"/>
<path fill-rule="evenodd" clip-rule="evenodd" d="M331.895 83.1855C331.058 84.0718 329.871 84.6283 328.552 84.6283C326.016 84.6283 323.96 82.586 323.96 80.0667C323.96 77.5473 326.016 75.505 328.552 75.505V67.0333C321.338 67.0333 315.433 72.8996 315.433 80.0667C315.433 87.2337 321.338 93.1 328.552 93.1C332.341 93.1 335.765 91.5073 338.1 88.9736L331.895 83.1855Z" fill="#F2F2F2"/>
<path fill-rule="evenodd" clip-rule="evenodd" d="M328.467 67.0333V75.505C330.986 75.505 333.028 77.5473 333.028 80.0667H341.5C341.5 72.8996 335.634 67.0333 328.467 67.0333Z" fill="#AFB9C5"/>
<path fill-rule="evenodd" clip-rule="evenodd" d="M333.041 80.0667C333.041 81.5146 332.359 82.8017 331.3 83.6327L336.511 90.2667C339.545 87.8917 341.5 84.2101 341.5 80.0667H333.041Z" fill="#C5CFD6"/>
<path fill-rule="evenodd" clip-rule="evenodd" d="M395.896 335.059C395.898 335.065 395.9 335.07 395.904 335.077C395.9 335.071 395.896 335.049 395.896 335.059" fill="#C5CFD6"/>
<path fill-rule="evenodd" clip-rule="evenodd" d="M395.901 335.068C395.901 335.069 395.902 335.071 395.902 335.073C395.902 335.068 395.892 335.051 395.901 335.068" fill="#C5CFD6"/>
<path fill-rule="evenodd" clip-rule="evenodd" d="M395.862 334.972C395.87 334.994 395.88 335.016 395.889 335.039C395.885 335.027 395.88 335.018 395.875 335.007C395.993 335.301 395.919 335.11 395.862 334.972" fill="#C5CFD6"/>
<path fill-rule="evenodd" clip-rule="evenodd" d="M395.887 335.04C395.892 335.05 395.896 335.061 395.901 335.072C395.934 335.135 395.887 335.04 395.887 335.04" fill="#C5CFD6"/>
<path fill-rule="evenodd" clip-rule="evenodd" d="M395.9 335.068C395.9 335.067 395.9 335.067 395.899 335.066C395.9 335.067 395.9 335.067 395.9 335.068" fill="#C5CFD6"/>
<path fill-rule="evenodd" clip-rule="evenodd" d="M395.906 335.076C395.913 335.09 395.874 335.024 395.906 335.076Z" fill="#C5CFD6"/>
<path fill-rule="evenodd" clip-rule="evenodd" d="M395.901 335.068L395.899 335.066C395.9 335.067 395.9 335.068 395.901 335.068" fill="#C5CFD6"/>
<rect width="80.4667" height="53.2667" rx="2.26667" transform="matrix(-1 0 0 1 436.133 291.433)" fill="#DDE3E9"/>
<path fill-rule="evenodd" clip-rule="evenodd" d="M406.255 306.733L429.52 344.7H382.991L406.255 306.733Z" fill="#AFB9C5"/>
<path fill-rule="evenodd" clip-rule="evenodd" d="M382.268 316.903L402.835 344.7H361.701L382.268 316.903Z" fill="#C5CFD6"/>
<path fill-rule="evenodd" clip-rule="evenodd" d="M373.517 316.933C369.292 316.933 365.867 313.508 365.867 309.283C365.867 305.058 369.292 301.633 373.517 301.633C377.742 301.633 381.167 305.058 381.167 309.283C381.167 313.508 377.742 316.933 373.517 316.933Z" fill="white"/>
<path fill-rule="evenodd" clip-rule="evenodd" d="M158.697 253.631C162.819 256.117 166.87 257.318 168.771 256.828C173.538 255.598 173.976 238.146 170.288 231.265C166.599 224.385 147.636 221.386 146.68 235.018C146.348 239.75 148.334 243.972 151.267 247.417L146.007 271.948H161.285L158.697 253.631Z" fill="#B28B67"/>
<path fill-rule="evenodd" clip-rule="evenodd" d="M150.093 250.486C148.176 241.95 142.713 236.13 143.547 232.315C144.382 228.5 147.995 227.57 147.995 227.57C147.995 227.57 149.863 220.005 160.047 221.135C170.231 222.264 176.447 226.497 173.763 235.81C171.296 235.81 168.317 234.917 164.198 236.447C162.237 237.175 161.393 240.963 161.393 240.963H159.532C159.532 240.963 156.822 236.468 154.188 237.659C151.554 238.851 152.99 243.448 152.99 243.448L152.073 250.486H150.093Z" fill="#191847"/>
<path fill-rule="evenodd" clip-rule="evenodd" d="M122.426 350.511H171.603L178.047 429.499H104.843L122.426 350.511Z" fill="#C5CFD6"/>
<path fill-rule="evenodd" clip-rule="evenodd" d="M122.426 350.511H137.551L146.603 429.499H104.843L122.426 350.511Z" fill="black" fill-opacity="0.1"/>
<path fill-rule="evenodd" clip-rule="evenodd" d="M198.622 366.159C193.096 377.888 184.461 406.358 184.461 406.358L191.792 409.71C191.792 409.71 210.393 379.782 221.76 359.324C221.231 363.93 220.691 369.115 220.191 374.565C219.007 387.478 220.191 415.374 220.828 423.433C221.228 428.497 228.105 427.436 228.747 423.42C228.856 422.739 229.299 420.351 229.96 416.787C233.202 399.313 241.687 353.579 241.702 342.381C241.708 337.875 232.911 333.828 227.668 336.978C224.067 333.133 217.251 330.916 213.335 337.269C210.845 341.307 204.93 352.772 198.622 366.159Z" fill="#B28B67"/>
<path fill-rule="evenodd" clip-rule="evenodd" d="M184.985 395.818L210.147 336.17C216.174 326.467 233.074 338.144 231.019 343.772C226.352 356.549 202.618 397.913 201.227 401.719L184.985 395.818Z" fill="#1F28CF"/>
<path fill-rule="evenodd" clip-rule="evenodd" d="M185.382 402.74C184.992 402.202 184.232 402.075 183.723 402.501C182.681 403.371 181.09 404.788 180.529 405.76C179.668 407.252 178.513 410.402 178.513 410.402C180.243 411.402 209.606 428.366 209.606 428.366C209.606 428.366 213.131 425.057 210.705 423.229C208.278 421.4 206.699 420.145 206.699 420.145L195.925 405.29C195.737 405.031 195.374 404.979 195.121 405.173L192.834 406.936C192.834 406.936 189.765 406.668 188.254 405.795C187.296 405.241 186.117 403.754 185.382 402.74Z" fill="#E4E4E4"/>
<path fill-rule="evenodd" clip-rule="evenodd" d="M220.844 419.426C220.238 419.156 219.516 419.426 219.287 420.049C218.82 421.324 218.15 423.348 218.15 424.47C218.15 426.193 218.723 429.499 218.723 429.499C220.721 429.499 254.626 429.499 254.626 429.499C254.626 429.499 256.026 424.869 253.011 424.5C249.995 424.131 248.001 423.833 248.001 423.833L231.248 416.359C230.957 416.229 230.615 416.366 230.493 416.661L229.393 419.331C229.393 419.331 226.602 420.635 224.857 420.635C223.751 420.635 221.987 419.937 220.844 419.426Z" fill="#E4E4E4"/>
<path fill-rule="evenodd" clip-rule="evenodd" d="M243.466 346.964C243.466 363.888 235.435 403.363 235.429 407.089L218.15 407.102C218.15 407.102 221.944 354.267 220.84 353.698C219.737 353.129 175.612 358.107 162.379 358.107C143.296 358.107 135.402 346.065 134.761 323.756H172.564C180.261 324.581 220.409 332.684 235.319 335.47C241.702 336.663 243.466 342.302 243.466 346.964Z" fill="#2B44FF"/>
<path fill-rule="evenodd" clip-rule="evenodd" d="M217.751 330.609L199.718 313.005L193.729 323.376L212.48 334.439C217.182 341.85 219.943 345.053 220.764 344.046C221.457 343.197 221.139 342.267 220.847 341.41C220.619 340.742 220.407 340.119 220.699 339.614C221.365 338.46 225.13 339.121 228.676 339.901C232.221 340.681 231.401 338.938 230.647 338.028C227.296 335.322 222.997 332.849 217.751 330.609ZM111.462 356.185C113.327 352.398 119.68 315.488 119.68 315.488L132.982 315.54C132.982 315.54 120.662 355.341 119.68 357.776C118.404 360.939 120.571 365.536 122.04 368.652C122.268 369.135 122.478 369.581 122.657 369.982C120.618 370.895 119.639 369.791 118.606 368.628C117.44 367.314 116.206 365.924 113.302 367.276C112.179 367.799 111.117 368.416 110.08 369.02C106.496 371.104 103.204 373.019 98.7252 370.254C98.0151 369.816 97.2371 368.165 99.117 366.875C103.801 363.661 110.55 358.036 111.462 356.185Z" fill="#B28B67"/>
<path fill-rule="evenodd" clip-rule="evenodd" d="M157.483 259.631L162.987 258.686C172.464 282.376 189.009 303.902 212.624 323.263L194.78 344.957C171.168 317.389 156.614 288.947 157.483 259.631Z" fill="#191847"/>
<path fill-rule="evenodd" clip-rule="evenodd" d="M133.488 328.852H182.503C182.503 328.852 165.469 287.408 165.469 258.439L150.684 256.234C139.064 274.936 135.783 297.961 133.488 328.852Z" fill="#DDE3E9"/>
<path fill-rule="evenodd" clip-rule="evenodd" d="M111.208 349.874C116.569 289.356 150.359 256.234 150.359 256.234L150.371 256.245C150.373 256.241 150.375 256.238 150.377 256.234H151.342C153.074 256.294 156.619 256.449 156.619 256.449L160.192 266.666C160.759 285.352 166.812 341.979 166.812 341.979H134.729C134.784 344.575 134.905 347.208 135.099 349.874H111.208Z" fill="#2F3676"/>
<path fill-rule="evenodd" clip-rule="evenodd" d="M134.735 342.23C134.479 330.923 135.481 320.306 137.153 310.699C138.028 322.099 139.856 335.817 143.673 342.23H134.735Z" fill="black" fill-opacity="0.1"/>
<path fill-rule="evenodd" clip-rule="evenodd" d="M141.834 322.482L157.677 315.112V322.482H141.834Z" fill="white" fill-opacity="0.2"/>
<path fill-rule="evenodd" clip-rule="evenodd" d="M337.067 211.735C332.938 214.223 328.882 215.425 326.978 214.935C322.204 213.704 321.765 196.238 325.459 189.352C329.153 182.466 348.144 179.465 349.102 193.108C349.434 197.843 347.446 202.069 344.508 205.517L349.775 230.067H334.475L337.067 211.735Z" fill="#B28B67"/>
<path fill-rule="evenodd" clip-rule="evenodd" d="M331.502 181.853C333.593 181.215 336.628 180.999 337.904 181.145C337.178 179.405 336.89 177.467 337.125 175.579C337.353 173.745 338.173 172.183 338.931 170.547C339.28 169.792 339.676 169.042 340.266 168.465C340.868 167.877 341.629 167.489 342.427 167.304C343.244 167.115 344.098 167.131 344.916 167.303C345.278 167.379 345.603 167.544 345.958 167.636C346.321 167.73 346.498 167.503 346.762 167.274C347.397 166.723 348.329 166.451 349.134 166.354C350.036 166.245 350.973 166.381 351.833 166.678C352.671 166.967 353.476 167.436 354.082 168.119C354.351 168.423 354.596 168.769 354.755 169.151C354.82 169.308 354.831 169.401 354.988 169.458C355.132 169.512 355.302 169.513 355.451 169.564C356.896 170.053 358.131 171.169 358.803 172.602C359.195 173.438 359.381 174.91 359.33 176.56C359.279 178.21 357.79 182.514 356.397 184.084C355.153 185.486 353.325 186.411 351.561 186.816C352.732 188.154 353.511 189.827 354.088 191.528C354.714 193.375 355.101 195.295 355.244 197.251C355.38 199.11 355.393 201.075 354.957 202.894C354.549 204.595 353.678 205.991 352.223 206.876C351.556 207.281 350.839 207.586 350.118 207.864C349.407 208.139 348.694 208.406 347.949 208.56C346.54 208.851 344.916 208.801 343.83 207.679C343.439 207.275 343.009 206.767 342.723 206.273C342.621 206.095 342.559 205.979 342.684 205.805C342.833 205.597 343.075 205.438 343.267 205.275C344.361 204.347 345.038 203.109 345.209 201.637C345.382 200.144 344.981 198.217 343.529 197.565C341.737 196.761 339.764 197.684 338.171 198.545C337.494 196.155 336.104 194.004 333.925 192.908C331.514 191.696 328.747 191.554 326.27 190.514C325.624 190.243 324.967 189.935 324.491 189.383C324.293 189.152 324.06 188.852 323.98 188.547C323.876 188.146 324.135 187.81 324.334 187.497C325.394 185.839 329.411 182.49 331.502 181.853Z" fill="#191847"/>
<path fill-rule="evenodd" clip-rule="evenodd" d="M359.954 283.9L336 362.364L324.396 429.093H315.298L327.559 283.9H359.954Z" fill="#997659"/>
<path fill-rule="evenodd" clip-rule="evenodd" d="M368.524 283.9C366.897 326.981 368.811 349.203 369.175 353.117C369.54 357.031 374.526 382.411 386.331 430.407L376.636 427.071C357.98 383.051 351.622 360.173 349.483 354.393C347.343 348.613 341.66 325.115 332.434 283.9H368.524Z" fill="#B28B67"/>
<path fill-rule="evenodd" clip-rule="evenodd" d="M384.631 426.249C385.238 425.977 385.96 426.248 386.188 426.872C386.656 428.148 387.326 430.175 387.326 431.298C387.326 433.024 386.752 436.333 386.752 436.333C384.755 436.333 350.85 436.333 350.85 436.333C350.85 436.333 349.45 431.698 352.465 431.328C355.481 430.958 357.475 430.661 357.475 430.661L374.227 423.178C374.519 423.047 374.861 423.184 374.982 423.479L376.083 426.153C376.083 426.153 378.874 427.458 380.619 427.458C381.725 427.458 383.488 426.76 384.631 426.249Z" fill="#E4E4E4"/>
<path fill-rule="evenodd" clip-rule="evenodd" d="M324.795 426.249C325.401 425.977 326.124 426.248 326.352 426.872C326.82 428.148 327.49 430.175 327.49 431.298C327.49 433.024 326.916 436.333 326.916 436.333C324.919 436.333 291.013 436.333 291.013 436.333C291.013 436.333 289.614 431.698 292.629 431.328C295.644 430.958 297.639 430.661 297.639 430.661L314.391 423.178C314.683 423.047 315.025 423.184 315.146 423.479L316.246 426.153C316.246 426.153 319.038 427.458 320.783 427.458C321.889 427.458 323.652 426.76 324.795 426.249Z" fill="#E4E4E4"/>
<path fill-rule="evenodd" clip-rule="evenodd" d="M363.137 283.9L352.952 323.877H321.843L326.482 283.9H363.137Z" fill="#69A1AC"/>
<path fill-rule="evenodd" clip-rule="evenodd" d="M368.866 283.9C373.893 298.997 370.776 323.877 370.776 323.877H339.03L330.301 283.9H368.866Z" fill="#89C5CC"/>
<path fill-rule="evenodd" clip-rule="evenodd" d="M275.219 265.355L299.503 272.168L293.511 282.535L274.537 271.831C265.759 271.465 261.601 270.675 262.063 269.461C262.452 268.438 263.418 268.247 264.307 268.072C265 267.936 265.646 267.808 265.938 267.303C266.605 266.149 264.147 263.221 261.697 260.541C259.246 257.861 261.167 257.701 262.333 257.898C266.356 259.447 270.651 261.933 275.219 265.355ZM379.794 266.313L392.371 261.933C404.388 283.783 411.396 295.697 413.395 297.676C414.861 299.126 423.081 302.239 428.561 303.748C430.761 304.353 430.561 306.165 430.032 306.81C426.692 310.878 422.952 310.143 418.881 309.341C417.702 309.11 416.496 308.872 415.263 308.744C412.073 308.413 411.357 310.128 410.681 311.748C410.082 313.182 409.514 314.542 407.287 314.344C407.326 313.908 407.38 313.418 407.438 312.889C407.815 309.468 408.37 304.424 406.133 301.853C404.985 300.533 396.205 288.687 379.794 266.313Z" fill="#B28B67"/>
<path fill-rule="evenodd" clip-rule="evenodd" d="M337.484 220.379L331.894 220.211C321.622 233.396 320.657 261.738 313.248 266.513C306.243 271.027 295.152 269.17 281.893 266.421L279.239 275.587C292.449 286.361 318.355 293.392 327.42 286.026C341.913 274.249 340.774 239.62 337.484 220.379Z" fill="#FABB3E"/>
<path fill-rule="evenodd" clip-rule="evenodd" d="M370.905 285.514C370.905 285.514 338.073 290.128 322.604 292.302C320.396 292.612 320.365 289.372 320.459 287.722C321.537 268.677 333.104 246.686 329.398 220.313L343.024 216.174C357.148 233.055 364.334 255.273 370.905 285.514Z" fill="#DDE3E9"/>
<path fill-rule="evenodd" clip-rule="evenodd" d="M340.018 303.35L383.497 297.239C381.353 286.978 377.608 276.334 373.086 266.078C385.425 282.424 395.495 294.026 403.298 300.882L413.144 297.48C400.948 258.023 377.874 230.878 343.923 216.047L343.764 216.07L338.406 216.823C338.406 216.823 328.617 283.299 340.018 303.35Z" fill="#FABB3E"/>
<defs>
<clipPath id="clip0_193_464">
<rect width="474.493" height="154.44" fill="white" transform="translate(27.9536 236.28)"/>
</clipPath>
<clipPath id="clip1_193_464">
<rect width="90.1" height="171.133" fill="white" transform="translate(133.533 74.4)"/>
</clipPath>
<clipPath id="clip2_193_464">
<rect width="74.2333" height="115.6" fill="white" transform="translate(141.467 90.2667)"/>
</clipPath>
<clipPath id="clip3_193_464">
<rect width="74.2333" height="30.6" fill="white" transform="translate(141.467 90.2667)"/>
</clipPath>
<clipPath id="clip4_193_464">
<rect width="41.3667" height="12.24" fill="white" transform="translate(163.567 99.4467)"/>
</clipPath>
<clipPath id="clip5_193_464">
<rect width="74.2333" height="23.8" fill="white" transform="translate(141.467 125.4)"/>
</clipPath>
<clipPath id="clip6_193_464">
<rect width="41.3667" height="9.52" fill="white" transform="translate(163.567 132.54)"/>
</clipPath>
<clipPath id="clip7_193_464">
<rect width="74.2333" height="23.8" fill="white" transform="translate(141.467 153.733)"/>
</clipPath>
<clipPath id="clip8_193_464">
<rect width="41.3667" height="9.52" fill="white" transform="translate(163.567 160.873)"/>
</clipPath>
<clipPath id="clip9_193_464">
<rect width="74.2333" height="23.8" fill="white" transform="translate(141.467 182.067)"/>
</clipPath>
<clipPath id="clip10_193_464">
<rect width="41.3667" height="9.52" fill="white" transform="translate(163.567 189.207)"/>
</clipPath>
<clipPath id="clip11_193_464">
<rect width="117.3" height="171.133" fill="white" transform="translate(143.733 89.1333)"/>
</clipPath>
<clipPath id="clip12_193_464">
<rect width="74.2333" height="115.6" fill="white" transform="translate(178.867 105)"/>
</clipPath>
<clipPath id="clip13_193_464">
<rect width="74.2333" height="30.6" fill="white" transform="translate(178.867 105)"/>
</clipPath>
<clipPath id="clip14_193_464">
<rect width="41.3667" height="12.24" fill="white" transform="translate(183.967 114.18)"/>
</clipPath>
<clipPath id="clip15_193_464">
<rect width="74.2333" height="23.8" fill="white" transform="translate(178.867 140.133)"/>
</clipPath>
<clipPath id="clip16_193_464">
<rect width="41.3667" height="9.52" fill="white" transform="translate(200.967 147.273)"/>
</clipPath>
<clipPath id="clip17_193_464">
<rect width="74.2333" height="23.8" fill="white" transform="translate(178.867 168.467)"/>
</clipPath>
<clipPath id="clip18_193_464">
<rect width="41.3667" height="9.52" fill="white" transform="translate(183.967 175.607)"/>
</clipPath>
<clipPath id="clip19_193_464">
<rect width="74.2333" height="23.8" fill="white" transform="translate(178.867 196.8)"/>
</clipPath>
<clipPath id="clip20_193_464">
<rect width="41.3667" height="9.52" fill="white" transform="translate(200.967 203.94)"/>
</clipPath>
<clipPath id="clip21_193_464">
<rect width="189.833" height="196.067" fill="white" transform="translate(208.333 103.3)"/>
</clipPath>
<clipPath id="clip22_193_464">
<rect width="39.6667" height="109.933" fill="white" transform="translate(349.433 178.1)"/>
</clipPath>
<clipPath id="clip23_193_464">
<rect width="19.2667" height="89.5333" fill="white" transform="translate(359.633 188.3)"/>
</clipPath>
<clipPath id="clip24_193_464">
<rect width="127.5" height="159.8" fill="white" transform="translate(217.4 128.233)"/>
</clipPath>
<clipPath id="clip25_193_464">
<rect width="127.5" height="26.6333" fill="white" transform="translate(217.4 128.233)"/>
</clipPath>
<clipPath id="clip26_193_464">
<rect width="94.6333" height="10.6533" fill="white" transform="translate(222.5 136.223)"/>
</clipPath>
<clipPath id="clip27_193_464">
<rect width="127.5" height="22.1" fill="white" transform="translate(217.4 159.4)"/>
</clipPath>
<clipPath id="clip28_193_464">
<rect width="94.6333" height="8.84" fill="white" transform="translate(222.5 166.03)"/>
</clipPath>
<clipPath id="clip29_193_464">
<rect width="127.5" height="22.1" fill="white" transform="translate(217.4 186.033)"/>
</clipPath>
<clipPath id="clip30_193_464">
<rect width="94.6333" height="8.84" fill="white" transform="translate(222.5 192.663)"/>
</clipPath>
<clipPath id="clip31_193_464">
<rect width="127.5" height="22.1" fill="white" transform="translate(217.4 265.933)"/>
</clipPath>
<clipPath id="clip32_193_464">
<rect width="94.6333" height="8.84" fill="white" transform="translate(222.5 272.563)"/>
</clipPath>
<clipPath id="clip33_193_464">
<rect width="127.5" height="22.1" fill="white" transform="translate(217.4 239.3)"/>
</clipPath>
<clipPath id="clip34_193_464">
<rect width="94.6333" height="8.84" fill="white" transform="translate(222.5 245.93)"/>
</clipPath>
<clipPath id="clip35_193_464">
<rect width="127.5" height="22.1" fill="white" transform="translate(217.4 212.667)"/>
</clipPath>
<clipPath id="clip36_193_464">
<rect width="94.6333" height="8.84" fill="white" transform="translate(222.5 219.297)"/>
</clipPath>
</defs>
</svg>
