<svg width="398" height="398" viewBox="0 0 398 398" fill="none" xmlns="http://www.w3.org/2000/svg">
<g clip-path="url(#clip0_241_376)">
<rect width="397.35" height="397.35" fill="#FAF8F5"/>
<path d="M397.35 198.68C397.35 308.41 308.4 397.36 198.67 397.36C88.95 397.35 0 308.4 0 198.68C0 88.95 88.95 0 198.68 0C308.41 0 397.36 88.95 397.36 198.68H397.35Z" fill="#FAF8F5"/>
<path d="M227.35 180.43L307.72 94.47H277.2L214.12 161.95L165.81 94.47H82.3301L166.83 212.51L82.3301 302.9H112.85L180.07 231L231.54 302.9H315.02L227.35 180.44V180.43ZM125.34 116.57H154.44L272 280.78H242.9L125.34 116.57Z" fill="#259C7F"/>
</g>
<defs>
<clipPath id="clip0_241_376">
<rect width="397.35" height="397.35" fill="white"/>
</clipPath>
</defs>
</svg>
